<?xml version="1.0" encoding="UTF-8"?><svg xmlns="http://www.w3.org/2000/svg" viewBox="0 0 2546.82 2595.54"><defs><style>.uuid-7b2b1d90-6b69-4ae1-82bb-bcf470cb6496{fill:#d1a28e;}.uuid-b7ed512f-a2c7-48e8-be1f-c12aa364e467{fill:#e86dab;}.uuid-7bf2b600-612b-4a23-bd26-3a81b9fa87b6{fill:#a03a83;}.uuid-50092800-6dfd-4a2d-ad8e-846502376166{fill:#b39b8f;}.uuid-9ee5b6c1-7d31-4329-9f9b-609790519a6a{fill:#a27d6e;}.uuid-03376b92-35fc-41b7-8084-23b4b3fd0744{fill:#d0bdbf;}.uuid-eddd921f-a7c8-4197-95f6-1c31e2117b69{fill:#d19098;}.uuid-908b6393-5cdd-4b33-9e1e-cb461db96d6b{fill:#4ba383;}.uuid-0394b179-4ccb-4395-b601-1d611b5efa95{fill:#536b61;}.uuid-b947d964-96b6-4187-a295-3730d2d4a6a6{fill:#80635d;}.uuid-e04f81e5-b9dd-429c-b016-6583352925aa{fill:#eeacc6;}.uuid-6b23f6f7-6040-4dc9-a9cb-046e284d54c6{fill:#5db290;}.uuid-dfaf0da6-5bbd-424b-8f0c-e0b1b6797ca1{fill:#fce5eb;}</style></defs><g id="uuid-9e79c0c3-f408-4982-a926-ff4aabf5eccb"><path class="uuid-dfaf0da6-5bbd-424b-8f0c-e0b1b6797ca1" d="M628.34,1682.9c-3.88-8.57,210.48-102,217.15-119.25-18.32-41.17,65.6-287.08,85.42-287.83,15.53-.59,31.7,253.65,20.38,283.46,8.16,38.51,21,75.51,36.53,111.59,17.07,39.65,39.44,75.92,69.95,106.81,1.67,1.69,3.09,4.07,7.08,4.5-30.4-45.92-49.14-95.45-61.33-147.69.83,1.01,1.46,2.11,1.89,3.29,14,38.22,32.16,74.32,53.35,109.1,26.71,43.82,59.07,81.77,103.99,107.85,3.27,1.9,6.12,4.56,10.02,5.24.22.08.43.17.64.25-.16-.12-.32-.24-.48-.36-20.46-25.55-37.77-53.06-51.18-83.1,22.43,29.71,46.39,57.89,75.68,81,29.61,23.36,63.86,36.59,101.8,46.22-5.49-7.97-10.11-14.1-14.09-20.6-5.75-9.39-12.52-18.26-15.61-29.09,2.91-.1,3.44,2.61,4.71,4.25,7.49,9.68,14.93,19.41,23.42,28.25,5.05,5.26,10.5,10.15,16.55,15.96,0-2.21.16-2.92-.02-3.52-11.48-38.46-12.05-77.68-8.38-117.22,3.54-38.15,9.74-75.94,15.29-113.82.91-6.18-.77-14.43,11.43-10.63-3.06-3.28-5.35-5.32-7.59-7.41-1.11-1.03-2.03-1.8-1.68-3.91,4.53-27.72,7.05-55.68,9.86-83.6.62-6.13.09-12.43,2.24-19.55,5.4,81.84,3.9,162.29-5.31,242.86,27.71-19.57,77.19-152.73,87.6-234.95,1.13-1.4,9.63-245.4,23.31-245.24,13.69.16,68.63,244.61,70.76,246.73.4,1.04.17,2.72,1.2,3.13,96.76,38.3,133.19,109.22,188.34,158.36,1.97,1.75,8.16,113.13-29.05,138.95-1,12.97-5.56,25.11-8.85,37.54-1.2,4.54-2.59,9.02-3.12,14.01,11.53-9.45,20.07-21.54,31.05-33.12.91,14.13-.71,26.85-1.74,39.53-4.22,52.16-8.66,104.3-13.23,156.42-1.37,15.56-3.48,31.06-5.16,46.6-.46,4.24-2.64,7.71-4.7,11.18-20.41,34.5-43.59,66.77-74.96,92.38-1.17.95-2.79,1.64-2.98,4.1,12.07-1.66,23-6.41,34.18-10.33,3.35-1.18,6.29-3.68,10.15-3.31.49,1.53-.5,2.58-1.25,3.68-21.38,31.18-46.09,59.11-76.25,82.32-44.28,34.08-91.84,62.88-140.47,90.07-13.42,7.5-27.24,14.29-40.87,21.41-8.46,3.79-16.94,7.52-25.37,11.38-46.15,21.1-93.22,39.88-141.14,56.56-6.22,2.17-12.15,2.4-18.56.67-48.61-13.17-95.47-31.25-142.06-50.14-15.3-6.2-29.64-14.6-45.41-19.71-1.97-1.1-3.9-2.3-5.93-3.29-42.2-20.55-83.26-43.16-123.3-67.65-33.73-20.63-66.05-43.04-93.22-72.18-12.92-13.86-22.68-29.84-32.41-45.91,13.45,6.04,37.17,11.51,50.18,11.3-12.53-8.03-23.11-17.15-33.34-26.7-31.24-29.15-32.76-32.17-41.91-74.01-15.88-72.62-30.09-145.53-40.3-219.19-1.02-7.38-2.44-14.75-2.16-22.27"/><path class="uuid-50092800-6dfd-4a2d-ad8e-846502376166" d="M287.36,1868.65c-10.79,6.74-22.94,8.98-35.28,10.51-2.01.25-4.08.11-6.12.09-14.57-.19-19.28-3.76-23.58-17.55-.62-2-.15-5.35-2.96-5.46-2.57-.1-3.03,3.08-3.81,5.07-5.36,13.78-8.58,28.19-11.59,42.59-6.34,30.4-12.85,60.83-15.23,91.84-4.39,57.11-1.88,113.67,15.89,168.78,12.56,38.96,35.97,69.72,69.35,93.1,1.3.91,2.67,1.72,3.93,2.68,1.78,1.35,4.12,2.58,3.41,5.32-.73,2.82-3.37,2.66-5.6,2.74-34.31,1.17-67.75-3.48-100.38-14.38-24.96-8.34-47.21-21.83-69.56-35.22-3.09-1.85-7.02-5.49-9.67-3.32-3.02,2.48.64,6.63,2.09,9.67,4.4,9.25,10.83,17.23,16.87,25.44,1.36,1.86,4.3,3.79,2.18,6.41-2.07,2.56-4.75.55-6.71-.73-22.63-14.8-44.07-30.95-61.54-51.98-28.22-33.96-41.68-74.03-47.4-116.78-3.89-29.15-.81-58.45,6.83-86.89,9.54-35.5,22.12-69.97,37.85-103.24,16.65-35.2,33.05-70.53,51.6-104.78,28.97-53.49,62.24-104.1,101.07-151.06,18.01-21.78,38.35-41.08,59.9-59.09,16.08-13.44,34.03-23.93,55.14-28.02,10.41-2.02,13.15-4.82,14.17-15.22,3.61-36.79,9.72-73.21,15.95-109.6,3.67-21.44,8.98-42.54,14.7-63.54,4.16-15.29,9.97-30.14,12.15-45.96,1.62-11.85,7.76-22.14,11.51-33.25,5.06-14.97,12.23-29.18,16.19-44.56,10.29-21.26,20.61-42.51,30.83-63.81,1.74-3.63,3.88-7.13,4.47-11.23,2.82-2.15,4.12-5.4,5.66-8.36,11.91-22.92,24.83-45.23,38.57-67.11,35.49-56.52,75.13-109.88,119.5-159.75,5.95-6.69,13.36-12.21,17.36-20.57,2.84-.61,4.71-2.63,6.57-4.61,5.12-5.44,10.03-11.07,15.29-16.36,26.8-27,54.56-52.96,84.01-77.07,48.05-39.34,98.62-75.22,150.84-108.76,13.12-8.43,25.94-17.47,40.56-23.33,11.38-3.89,22.05-9.41,32.91-14.48,23-10.74,46.78-18.58,72.47-18.46,19.28.08,38.08,3.61,54.92,13.22,13.49,7.7,27.28,11.04,42.76,10.09,21.43-1.31,42.95-.01,64.43-1.35,9.32-.58,16.99-4.37,24.62-8.82,18.14-10.57,37.69-15.79,58.61-17.57,17.71-1.51,34.7,1.57,51.81,4.82,9.09,1.73,11.87-.26,11.39-9.63-1.09-21.48-2.65-42.93-4.01-64.39-.1-1.58-.08-3.17-.09-4.76-.09-10.78,2.26-12.76,13.04-10.63,25.87,5.12,51.03,12.52,75.05,23.56,19.58,9,37.89,20.4,57.02,30.22.55,2.79,3.52,3.19,4.99,5.07-2.9,1.88-5.3-.19-7.61-1.26-5.96-2.75-11.85-5.69-17.59-8.87-34.6-19.17-69.82-36.65-109.57-42.7-8.89-1.35-11.43.02-11.02,9.12.49,10.85,1.95,21.65,2.44,32.49,1.3,28.9,1.98,57.81,5.87,86.56,1.08,7.95.1,16.13,1.41,24.28,3.04,19,5.2,38.13,7.63,57.23.34,2.67.61,5.51-1.95,7.52-2.41-19.77-4.85-39.55-7.2-59.34-.36-3-2.03-4.89-4.25-6.62-10.38-8.09-21.35-15.34-32.48-22.35-20.88-13.15-42.24-12.6-64.32-3.11-19.6,8.42-36.47,20.93-53.25,33.74-12.1,9.24-22.21,20.66-34.06,30.14h.04c-3.91-4.78-8.74-8.55-13.53-12.35-26.6-21.11-54.82-39.36-87.25-50.49-11.69-4.01-22.08-2.56-32.36,4-19.95,12.73-38.72,27.11-55.54,43.6-37.81,37.06-70.68,78.35-101.52,121.33-18.37,25.61-36.68,51.23-52.32,78.65,0,.49,0,.99,0,1.48.28-.27.56-.54.84-.81.91-.65,1.99-1.16,2.7-1.98,25.16-28.85,51.59-56.37,80.47-81.64,29.53-25.84,59.37-51.09,94.01-69.91,15.28-8.3,29.86-18.07,46.62-23.44-2.4,6.59-4.52,13.31-7.25,19.76-13.44,31.74-23.41,64.73-34.59,97.27-7.06,20.54-12.11,41.77-18.25,62.63-9.21,31.33-17.02,63.03-22.59,95.17-7.62,43.96-14.97,88.01-18.74,132.5-2.02,23.9-5.97,47.65-5.93,71.72.04,24.23-.06,48.47.04,72.7.02,4.84-.35,9.49-2.47,13.89-.17,1.57-.23,3.16-.53,4.71-9.67,49.59-23.49,98.04-40.55,145.56-7.4,20.62-15.2,41.1-22.81,61.64-15.98,2.78-31.96,5.56-47.94,8.34,3.46-3.14,4.57-7.08,4.26-11.65-.52-7.68-1.28-15.37-1.21-23.05.21-22.39,1.15-44.78,1.12-67.18-.05-32.48,4.33-64.6,7.59-96.79,2.51-24.76,6.2-49.46,10.69-73.95,9.19-50.12,19.43-100.04,33.35-149.13,9.39-33.12,19.99-65.87,31.12-98.43,12.59-36.85,27-73,42.53-108.75,15.08-34.71,31.61-68.68,48.55-102.48,1.57-3.14,6.28-7.43,2.46-9.94-3.62-2.37-6.1,3.3-8.28,6.2-26.91,35.93-51.94,73.12-74.22,112.11-9.88,17.29-19.18,34.91-29.05,52.2-6.2,10.86-10.68,22.51-15.86,33.81-9.92,21.59-18.98,43.58-28.21,65.48-9.43,22.38-15.03,46.05-22.57,69.06-8.67,26.47-16.1,53.39-21.48,80.77-7.34,37.35-13.74,74.87-16.84,112.86-1.81,22.1-4.59,44.13-4.92,66.35-.65,44,2.38,87.75,8.53,131.29.89,6.3,0,13.46,6.83,17.53,6.83,3,15.71,10.68-2.25,19.85,1.57,16.48,5.52,32.49,9.21,48.59,2.51,10.98,6.78,21.6,7.43,32.99-2.94.53-3.58,3.27-4.87,5.26-20.53,31.62-146.43,158.32-175.74,182.42-1.49,1.23,132.09-177.16,148.22-217.38.92-2.3,2.2-4.49,2.01-8.15-7.34,12.94-14.64,24.87-22.24,36.63-17.86,27.62-41.43,50.14-61.26,76.58-14.85,19.8-18.94,25.26-15.57,42.59.04.22.09.44.13.67-.95,19.89,8.98,82.17,12.6,107.3-.12.17-.39.39-.35.5.12.31.35.56.54.84l-.17-.09c-.28,7.52,1.14,14.89,2.16,22.27,10.2,73.65,24.42,146.57,40.3,219.19,9.15,41.84,10.68,44.86,41.91,74.01,10.23,9.54,20.81,18.66,33.34,26.7-13.01.21-36.73-5.25-50.18-11.3-4.39-2.76-8.96-5.12-14.02-6.43-4.3-1.11,26.99,104.07,43.67,142.25,9.42,21.56,19.61,42.77,30.52,63.62.79,1.63,1.6,3.25,2.38,4.88,18.82,38.97,39.78,76.66,65.82,111.38,1.49,1.98,30.73,31.69,42.37,48.69-24.01-.79-55.36-15.5-67.14-18.29-13.01-2.65-25.31-8.77-39-8.05-3.51-5.46-9.57-6.7-15.01-8.65-41.28-14.84-78.59-36.62-113.82-62.61-40.21-29.66-72.63-66.53-102.21-106.27-1.47-2.29-2.83-4.66-4.43-6.85-41.98-57.7-74.05-120.89-101.99-186.21-22.11-51.7-40.44-104.84-56.27-158.81-19.65-67.03-35.56-134.94-47.79-203.72-1.52-8.56-1.16-17.62-5.69-25.54-2.18-9.56-1.16-19.42-2.79-29.04-6.01-35.58-9.3-71.36-8.65-107.49.45-24.9-.72-49.85,1.54-74.7,1.22-13.38-5.56-20.1-17.91-26.78-7.7-4.16-14.38-1.61-18.1,6.24-11.61,24.54-23.29,49.05-34.31,73.84-10.48,23.59-20.5,47.39-30.11,71.35-7.08,17.65-13.62,35.64-17.34,54.3-4.6,23.08-7.54,46.49-11.73,69.67-1.8,9.92-.07,19.37,1.72,28.89,1.81,9.64,5.65,12.92,15.45,14.35,12.82,1.88,24.59-2.6,36.55-5.95,2.97-.83,5.91-2.74,9.06-.51Z"/><path class="uuid-50092800-6dfd-4a2d-ad8e-846502376166" d="M1968.04,2266.58c-2.02,2.42-4.04,4.85-6.05,7.26-.71.76-1.43,1.54-2.15,2.31-2.7,3-5.39,6.01-8.08,9,0-.01-.37.44-.37.44-.54.53-1.07,1.05-1.59,1.57-5.63,5.5-11.28,11-16.93,16.51-1.11.92-2.21,1.84-3.31,2.75-3.92,3.12-7.86,6.26-11.79,9.39-.6.45-1.2.9-1.78,1.34-.72.5-1.45,1-2.17,1.51-.61.46-1.21.92-1.81,1.36-.35.27-.69.55-1.03.86-1.51,1.08-3.03,2.16-4.53,3.24-.71.45-1.43.91-2.15,1.36-.64.42-1.29.85-1.91,1.27-.69.46-1.4.94-2.1,1.41-.67.46-1.34.91-1.99,1.36-4.42,2.74-8.85,5.49-13.28,8.24-.52.34-1.05.69-1.56,1.02-2.55,1.34-5.11,2.69-7.67,4.03-1.15.47-2.3.94-3.44,1.4-20.71,9.35-42.15,16.52-64.68,19.88-6.19.92-10.35,3.54-13.74,8.55-12.16,18-24.96,35.57-39.33,51.84-32.28,36.55-70.05,66.7-111.9,91.45-18.24,10.79-37.33,20.43-57.59,27.31-4.64,1.58-9.66,2.94-12.1,8.01-11.44,3.08-23.04,5.64-33.84,10.73-20.57,4.22-40.83,10.24-63.47,11.83,9.14-11.49,17.24-21.67,25.35-31.86,7.73-9.18,14.87-18.8,21.47-28.82,20.42-31.02,37.83-63.78,55.22-96.53,3.98-7.49,8.75-14.84,10.23-23.5,0,0,.04.04.04.04-1.91.66-3.95,1.08-5.72,2.01-26.49,13.91-54.78,22.67-83.76,29.44-5.5,1.29-11.15,2.02-16.75,2.83-5.35.77-10.73,1.3-16.09,1.93,41.63-27.76,77.85-60.48,109.81-98.44,33.22-39.45,58.15-83.54,78.74-130.43.52-1.18,1.58-2.54.26-3.71-1.21-1.06-2.63-.25-3.78.39-5.53,3.1-11.01,6.27-16.51,9.42-.78.2-1.63.34-1.47,1.48l.1-.18c-3.86-.37-6.8,2.13-10.15,3.31-11.18,3.92-22.11,8.67-34.18,10.33.19-2.46,1.82-3.14,2.98-4.1,31.37-25.62,54.55-57.89,74.96-92.38,2.06-3.48,4.24-6.95,4.7-11.18,1.68-15.54,3.8-31.03,5.16-46.6,4.58-52.13,9.02-104.27,13.23-156.42,1.03-12.68,2.65-25.4,1.74-39.53-10.98,11.58-19.52,23.67-31.05,33.12.54-4.99,1.92-9.47,3.12-14.01,3.29-12.43,7.85-24.57,8.85-37.54,5.29-14.83,6.58-30.4,8.71-45.84.77-5.6,17.52-82.77,17.08-85.3-2.83-16.3.57-32.55.24-48.82-.5-24.68-.34-49.36-.86-74.05-.77-36.91-1.94-73.79-3.32-110.67-.59-15.82-1.06-31.76-3.47-47.36-5.1-32.89-10.97-65.69-17.39-98.35-12.27-62.35-29.84-123.33-50.21-183.45-16.38-48.33-36.63-95.12-60.75-140.16-15.73-29.37-32.25-58.25-51.42-85.57-6.07-8.65-13.93-16.07-18.24-25.96,1.06.12,2.12.24,3.17.37,4.23,1.54,8.56,2.49,13.08,2.33,1.06.1,2.13.21,3.19.31,25.23,4,50.45,8,75.68,12l3.23.34c2.4.62,4.76,1.44,7.2,1.84,38.16,6.26,75.91,14.59,113.69,22.75,4.91,1.06,9.8,2.12,12.79,6.78,10.41,16.29,23.83,30.09,36.81,44.24,8.56,9.33,17.8,17.97,28.61,24.75.67.59,1.35,1.18,2.02,1.77,2.8,39.51,5.41,79.04,8.59,118.53.56,6.95-.3,14.09,1.93,20.89.14,2.87.29,5.74.43,8.6-.12,3.97-.71,7.97.95,11.79.12,2.44.24,4.88.36,7.32-.07,3.93-.65,7.91.92,11.71.16,2.89.33,5.77.49,8.66-.1,3.95-.75,7.94.97,11.74.14,2.88.29,5.77.43,8.65-.2,3.52-.64,7.06.91,10.43.16,2.87.32,5.74.48,8.61-.29,8.1.73,16.09,2.21,24.03.11,1.55.23,3.11.34,4.66.05,3.92-.66,7.9,1.08,11.66.13,1.96.26,3.92.39,5.89-.23,2.62-.36,5.24.83,7.71.12,2.02.25,4.05.37,6.07-.47,10.65,1.05,21.19,2.08,31.72.72,7.39-.74,14.95,1.74,22.18l.22,3.18c.11,4.39-.69,8.86,1.01,13.13.26,2.51.79,5.07-1.03,7.29-8.03-6.62-15.98-13.35-24.13-19.83-5.95-4.72-12.74-7.63-20.35-8.75-4.54-.67-6.05.84-5.94,5.38.27,11.32.24,22.64.2,33.97-.01,4.07,1.25,7.43,3.98,10.48,34.42,38.49,67.54,78.08,99.14,118.93.62,5.3-2.95,8.88-5.49,12.74-17.54,26.61-36.27,52.41-56.66,76.86-11.79,14.13-8.79,29.2-6.83,44.73-2.98,9.94-.88,20.19-1.86,30.25-.57,5.88,1.48,10.34,5.92,14.35,10.99,9.93,19.68,21.8,27.49,34.33-5.06,1.76-6.58,5.1-4.03,9.84,2.57,4.78,8.77,6.32,13.24,3.54,12.07,18.89,22.97,38.45,33.89,58.01-1.32,2.61-2.37,5.4-4,7.8-18.8,27.69-39.39,54.02-60.35,80.09-5.41,6.73-12.43,12.65-14.25,21.82,0,0-.08.1-.09.1-3.38.64-3.7,3.29-4.35,6.05-2.97,12.7-2.64,25.58-2.56,38.46.04,5.62,2.63,8.16,8.26,8.33,12.01.37,23.88-1.21,35.81-2.09,8.87-.66,15.33-5.11,20.54-11.7,12.32-15.56,24.28-31.41,36.76-46.85,7.86-9.72,11.58-22.82,23.69-29.07,6.93,11.84,13.98,23.61,19.45,36.23,5.5,12.69,12.73,24.41,20.29,35.91,4.05,6.16,11.21,9.72,17.71,9.7,3.27-.01,2-8.71,3.07-13.42.15-.66.26-1.34.32-2.01,1.71-19.11,4.64-38.1-3.5-56.83-10-23.01-18.08-46.85-28.82-69.57.2-2.76,1.18-5.27,2.41-7.72,8.21-16.41,15.22-33.34,21.17-50.69,4.16-12.11,8.18-24.27,12.22-36.27,0,11.02.27,22.05-.07,33.06-.38,12.43-1.3,24.84-1.98,37.25-.2,3.63.37,6.85,4.48,8.08,18.84,5.67,37.22,12.63,55.72,19.29.48,1.97,1.27,3.91,1.4,5.9,2.45,37.72,5.06,75.43,5.65,113.24.55,35.1.37,70.2-2.83,105.21-.19,1.7-.38,3.4-.57,5.08-.22,1.54-.48,3.1-.66,4.67-5.55,49.08-13.42,97.58-35.4,142.57-.49,1.15-.98,2.3-1.46,3.43-.39.63-.8,1.28-1.2,1.92-.42.7-.85,1.41-1.26,2.1-1.37,2.55-2.75,5.11-4.13,7.66-.55,1.11-1.09,2.21-1.63,3.3-1.27,2.07-2.55,4.15-3.83,6.22-.4.63-.8,1.26-1.18,1.88-.97,1.58-1.95,3.17-2.93,4.75-.44.67-.87,1.33-1.3,1.98-1.35,2.11-2.7,4.23-4.06,6.35-.41.63-.82,1.27-1.23,1.89-2.74,3.87-5.49,7.75-8.24,11.63-1.52,1.93-3.04,3.87-4.54,5.79-.28.28-.55.58-.8.91Z"/><path class="uuid-50092800-6dfd-4a2d-ad8e-846502376166" d="M398.75,1242.27c-3.96,15.38-11.13,29.58-16.19,44.56-3.75,11.11-9.89,21.4-11.51,33.25-13.69-8.95-25.87-19.86-38.19-30.49-21.27-18.35-42.26-37.06-60.51-58.6-8.59-10.14-8.85-11.41-1.19-22.09,10.57-14.73,8.53-12.23-3.44-21.16-20.06-14.96-38.63-31.49-55.1-50.37-7.85-9-8.13-12.03-.71-21.06,7.48-9.1,15.12-18.07,22.79-27.02,3.75-4.38,4.45-8.86,2.57-14.46-16.82-49.99-27.1-101.59-37.05-153.23-9.87-51.22-16.61-102.94-22.92-154.69-4.11-33.73-7.8-67.61-8.22-101.6-.29-23.56,2.3-47.15,10.11-69.69,8.91-25.69,25.56-41.88,53.94-44.94,34.42-3.71,68.78-3.12,103.19-.85.9.06,1.8.22,2.7.3,13.34,1.19,13.3,1.18,17.37-11.13.85-2.57,1.93-5.1,3.22-7.47,5.54-10.2,9.22-11.2,19.72-6.58,24.15,10.62,46.05,25.35,69.25,37.72,7.91,4.22,16.05,5.79,24.63,6.74,63.77,7.05,127.55,14.12,190.55,26.51,84.28,16.58,165.3,43.11,242.24,81.6,2.21,1.11,4.27,2.52,6.4,3.79-14.61,5.86-27.44,14.91-40.56,23.33-52.22,33.55-102.79,69.42-150.84,108.76-29.45,24.11-57.21,50.07-84.01,77.07-5.26,5.3-10.18,10.92-15.29,16.36-1.86,1.98-3.73,4-6.57,4.61-9.19-3.21-18.43-6.27-27.55-9.65-31.66-11.73-63.07-24.02-92.04-41.69-9.94-6.07-19.11-12.99-25.75-22.78-3.46-5.1-2.72-9.18,2.74-12.48,7.84-4.75,16.37-7.66,25.07-10.24,4.59-1.36,9.13-2.88,14.03-4.44-8.26-9.67-57.92-43.09-77.59-52.55-1.36-2.25-3.78-3.2-5.83-4.53-29.33-18.93-59.11-37.11-89.77-53.83-15.73-8.58-31.69-16.66-47.94-24.19-2.84-1.31-5.69-3.13-8.1,1.04-4.76,8.23-10.08,16.13-12.88,25.39-4.8,15.91-7.83,32.18-9.4,48.66-8.19,85.84,1.38,170.21,22.56,253.39,19.5,76.57,53.77,146.56,97.51,212.07,6.01,9,10.97,18.76,18.55,26.68Z"/><path class="uuid-50092800-6dfd-4a2d-ad8e-846502376166" d="M2037.35,2057.02c3.2-35.01,8.48-72.69,7.93-107.8-.59-37.81-3.2-75.52-5.65-113.24-.13-1.99-.92-3.94-1.4-5.91,3.25-.49,6.24.45,9.3,1.41,13.62,4.25,26.67,10.39,40.85,12.73,18.61,3.06,30.37-6.46,31.45-25.24.18-3.16.44-6.4.01-9.51-3.4-24.68-6.17-49.47-12.46-73.66-6.71-25.78-18.02-49.76-28.72-74-20.86-47.25-42.95-93.89-67.94-139.12,4.73-.6,4.04-3.76,3.4-7.02-2.59-13.17-7.19-25.97-7.29-39.6,23.21-.51,45.96,4.23,68.95,6.2,11.89,1.02,14.23-.74,12.12-12.32-7.01-38.61-15.66-76.88-28.09-114.12-15.64-46.86-32.96-93.12-53.57-138.07-1.81-3.94-3.35-7.93-3.72-12.3,1.61-1.71,3.22-3.41,4.82-5.12-.88,4.91.73,9.1,2.79,13.58,11.74,25.52,22.14,51.6,32.14,77.85,15.58,40.9,29.97,82.18,39.74,124.9,4.29,18.78,8.16,37.66,11.82,56.57,2.01,10.37-2.45,15.17-13.09,14.2-18.71-1.7-37.38-3.85-56.07-5.79-2.7-.28-5.42-.65-8.12-.53-4.95.23-7.62,2.85-6.75,7.99,1.55,9.17,3.67,18.21,6.73,27.01,1.28,3.68,4.29,5.31,7.73,5.9,36.4,6.23,62.61,29.73,88.29,53.3,32.8,30.09,61.73,63.85,87.21,100.38,21.76,31.2,42.46,63.12,60.36,96.77,12.44,23.39,26.15,46.14,37.76,69.93,16.75,34.35,34.03,68.5,43.28,106.08,7.49,30.46,14.6,60.8,13.61,92.44-.74,23.63-6.96,46.14-14.76,68.15-17.66,49.82-50.92,87.05-95.04,115.16-4.22,2.69-9.84,6.31-13.55,2.58-2.51-2.53,2.21-7.63,4.75-10.91,4.34-5.58,7.74-11.68,11.06-17.84,1.1-2.05,3.4-4.57.77-6.67-2.06-1.64-4.4.32-6.14,1.6-12.5,9.15-26.22,16.13-40.22,22.59-39.17,18.09-80.18,28.38-123.48,28.62-4.33.02-10.7,1.38-11.94-3.52-.99-3.93,4.82-6.35,8.39-8.7,35.3-23.21,58.13-55.89,72.15-95.22,9.77-27.4,13.08-55.93,14.58-84.76,3.17-60.9-8.1-119.95-22.68-178.61-2.84-11.43-5.31-22.94-9.23-34.07-.89-2.51-1.56-5.63-4.72-6.15-3.53-.58-4.15,2.91-5.65,5-7.74,10.85-18.64,12.68-30.83,10.95-12.47-1.77-23.88-6.99-35.71-10.87-9.54-3.13-11.56-1.81-10.61,8.27,3.62,38.36,4.08,76.86,5.68,115.32,1.24,29.76-3.1,58.4-4.93,87.96-.09,1.53-3.26,6.69-5.36,7.2Z"/><path class="uuid-50092800-6dfd-4a2d-ad8e-846502376166" d="M363.99,1794.49c4.54,7.91,4.17,16.98,5.69,25.54,12.23,68.78,28.14,136.69,47.79,203.72,15.82,53.97,34.16,107.12,56.27,158.81,27.94,65.32,60.01,128.52,101.99,186.21,1.6,2.19,2.96,4.56,4.43,6.85-55.56-3.33-103.61-25.06-145.9-60.29-59.47-49.54-92.09-114.28-106.25-189.36-8.04-42.62-12.68-85.64-15.37-128.88-2.77-44.58-3.37-89.23-3.73-133.88-.05-1.33-.7-2.69.27-3.95,17.29-6.54,33.71-15.36,51.66-20.14,5.8-1.54,7.38-4.81,6.72-10.38-1.36-11.4-2.39-22.84-3.56-34.26Z"/><path class="uuid-50092800-6dfd-4a2d-ad8e-846502376166" d="M2080.53,872.32c-5.39,3.99-11.93,5.38-18.01,7.78-16.23,6.41-32.43,12.86-48.2,20.36-2.14,1.02-4.2,2.68-7.39,2.15,2.08-11.37,4.39-22.62,6.17-33.94,10.45-66.45,9.88-132.75-3.44-198.78-2.6-12.88-5.62-25.7-11.29-37.68-3.49-7.38-6.04-8.38-13.34-4.87-6.07,2.92-11.88,6.36-19.7,10.6,5.27-9.45,9.5-17.23,13.9-24.89,21.25-36.96,40.17-75.11,58.81-113.41,1.08-2.22,2.56-4.23,3.86-6.35,13.78,2.45,22.84,11.4,30.36,22.29,14.42,20.89,21.51,44.42,22.97,69.47,2.79,47.77.19,95.49-2.23,143.21-2.23,43.9-7.56,87.49-12.18,131.16-.45,4.26-.21,8.6-.3,12.9Z"/><path class="uuid-b7ed512f-a2c7-48e8-be1f-c12aa364e467" d="M363.99,1794.49c1.17,11.42,2.2,22.86,3.56,34.26.67,5.57-.92,8.84-6.72,10.38-17.95,4.77-34.37,13.59-51.66,20.13-8.01.05-15.21,1.85-19.9,9.14-.64.08-1.27.17-1.91.25-3.16-2.23-6.09-.33-9.06.51-11.96,3.35-23.73,7.83-36.55,5.95-9.8-1.43-13.64-4.71-15.45-14.35-1.79-9.52-3.51-18.97-1.72-28.89,4.19-23.17,7.13-46.58,11.73-69.67,3.72-18.66,10.26-36.65,17.34-54.3,9.61-23.96,19.63-47.76,30.11-71.35,11.02-24.8,22.7-49.31,34.31-73.84,3.71-7.85,10.4-10.4,18.1-6.24,12.35,6.68,19.13,13.4,17.91,26.78-2.26,24.86-1.09,49.8-1.54,74.7-.65,36.13,2.63,71.92,8.65,107.49,1.63,9.62.61,19.48,2.79,29.04Z"/><path class="uuid-50092800-6dfd-4a2d-ad8e-846502376166" d="M1472.35,618.18c-1.47-1.88-4.44-2.28-4.99-5.07,15.68-3.81,30.57-9.99,45.78-15.17,50.24-17.12,101.4-30.88,153.21-42.28,7.95-1.75,15.75-4.15,23.62-6.25-1.7,29.63-4.39,59.21-4.02,88.95.66,53.4,6.45,106.28,15.67,158.83.23,1.33.29,2.7.43,4.04-.26,0-.5.06-.73.17-.56-.38-1.12-.75-1.69-1.13-4.06-5.5-8.6-10.5-14.47-14.13-.66-.61-1.32-1.23-1.99-1.84-3.48-3.89-6.92-7.83-11.53-10.47-.22-.18-.45-.37-.67-.55-10.26-10.24-20.83-20.13-31.99-29.37-.68-.63-1.35-1.26-2.03-1.89-3.64-3.69-6.91-7.79-11.57-10.35-1.15-1-2.29-2.01-3.44-3.01-1.22-1.7-2.75-3.03-4.72-3.8-1.15-1.04-2.29-2.08-3.44-3.13-1.56-1.24-3.12-2.48-4.68-3.72-.23-.17-.47-.34-.7-.51-13.88-12.71-28.9-23.96-44.29-34.74-.7-.58-1.4-1.16-2.11-1.74-1.09-.8-2.18-1.59-3.27-2.39-.7-.58-1.41-1.16-2.11-1.74-1.71-2.15-3.63-4.05-6.27-5.05l-.48-.37c-20.89-16.87-42.88-32.17-65.89-45.99-.26-.17-.52-.35-.77-.52l-7.51-4.82c-1.12-.65-2.23-1.3-3.35-1.95Z"/><path class="uuid-50092800-6dfd-4a2d-ad8e-846502376166" d="M2007.37,1200.34c-1.61,1.71-3.22,3.41-4.82,5.12-13.51-26.69-28.11-52.77-43.48-78.43-8.96-14.95-18.75-29.41-26.82-44.89,33.94,10.4,67.78,21.12,102.52,28.66,3.3.72,6.5,1.86,9.75,2.81-2.39,3.39-4.78,6.78-7.17,10.17-1.79,2.05-3.59,4.11-5.37,6.15-.51.59-1.04,1.2-1.56,1.8-.41.63-.83,1.25-1.24,1.88,0,0,.04-.03.04-.03-.46.47-.91.95-1.37,1.42,0,0,.06-.01.06-.01-1.43,1.43-2.85,2.85-4.27,4.27-5.78,4.23-4.04,8.44.05,12.65.39.5.78,1,1.17,1.49.42.48.85.96,1.28,1.45.44.5.88,1,1.32,1.49.21.25.39.54.55.84.8.96,1.59,1.91,2.38,2.86.97,1.33,1.94,2.68,2.91,4.02.38.53.76,1.05,1.14,1.56,0-.01.35.52.35.52.56,2.99-1.26,5.01-2.91,7.08-2.3,2.61-4.62,5.23-6.93,7.85-2.61,2.88-5.22,5.77-7.82,8.64-.13.21-.29.41-.49.58-.38.58-.76,1.15-1.13,1.73,0,0,0,0,0,0-.59.4-1.17.79-1.75,1.18-.8.88-1.62,1.78-2.44,2.67-1.32,1.49-2.64,2.98-3.95,4.47Z"/><path class="uuid-03376b92-35fc-41b7-8084-23b4b3fd0744" d="M2037.34,1123.77c2.39-3.39,4.78-6.78,7.17-10.17,36.04,8.13,72.21,15.71,108.92,20.04,77.03,9.08,154.03,12.86,230.55-4.69,9.05-2.08,18.01-4.56,27.03-6.8,1.91-.47,4.14-1.98,5.78-.34,1.73,1.73-.06,3.84-.7,5.64-11.46,32-22.99,63.97-34.51,95.95-1.38,3.83-2.76,7.66-4.13,11.48-2.73-5.15.14-9.83,1.89-14.12,10.8-26.43,17.8-54.24,29.41-80.37,1.59-3.57,4.32-7.95,1.29-11.49-3.03-3.54-7.72-1.56-11.56-.52-51.05,13.88-103.21,16.66-155.7,14.97-55.56-1.79-110.65-8.12-165.17-19.08-7.33-1.47-14.72-2.77-21.88-4.86-5.95-1.74-11.08-2.08-15.34,3.23-.7.87-1.77,1.43-3.03,1.13Z"/><path class="uuid-9ee5b6c1-7d31-4329-9f9b-609790519a6a" d="M289.27,1868.4c4.68-7.29,11.89-9.09,19.9-9.13-.96,1.26-.32,2.62-.26,3.95-7.24-.9-12.79,4.57-19.63,5.18Z"/><path class="uuid-9ee5b6c1-7d31-4329-9f9b-609790519a6a" d="M2015.51,1192.01s0,0,0,0,0,0,0,0Z"/><path class="uuid-9ee5b6c1-7d31-4329-9f9b-609790519a6a" d="M2027.9,1134.98s-.05.01-.06.01c0,0,.06-.01.06-.01Z"/><path class="uuid-9ee5b6c1-7d31-4329-9f9b-609790519a6a" d="M2029.21,1133.57s-.04.03-.04.03c0,0,.04-.03.04-.03Z"/><path class="uuid-7b2b1d90-6b69-4ae1-82bb-bcf470cb6496" d="M1932.24,1082.13c8.07,15.48,17.86,29.94,26.82,44.89,15.37,25.66,29.98,51.74,43.48,78.43.37,4.36,1.91,8.36,3.72,12.3,20.61,44.95,37.93,91.2,53.57,138.07,12.43,37.24,21.08,75.5,28.09,114.12,2.1,11.59-.23,13.35-12.12,12.32-22.99-1.98-45.74-6.72-68.95-6.2-9.81-2.9-20.02-3.43-30.07-4.62-19.08-2.27-16.09-5.55-22.95,13.32-.39,1.06-.87,2.09-1.24,3.16-5.3,15.14-12.65,29.5-17.27,44.9-8.07,14.95-16.17,29.88-24.15,44.89-.69,1.3-.52,3.06-.75,4.61-3.02.77-4.04,3.47-5.29,5.79-11.77,21.91-26.19,42.08-40.81,62.11-4.22,5.78-8.33,11.78-14.02,16.37-15.78-8.56-31.97-9.95-48.65-2.78-1.96-15.53-4.96-30.61,6.83-44.73,20.4-24.45,39.12-50.25,56.66-76.86,2.54-3.86,6.12-7.44,5.49-12.74,2.67-.77,3.88-3.08,5.14-5.17,6.91-11.44,13.72-22.94,20.55-34.44,1.05-1.77,1.81-3.66,1.57-5.8,6.04-3.65,7.25-10.52,10.55-15.98,2.55-4.22,1.28-6.68-3.74-7.31-8.5-1.06-16.97-2.29-25.46-3.45-14.36-2.01-28.49-5.02-42.45-8.95-5.24-1.48-7.79-4.51-8.85-9.78-2.6-12.87-4.52-25.84-6.02-38.87-.46-4.01-1.57-7.44-4.19-10.43,1.82-2.22,1.3-4.77,1.04-7.28,1.8-4.54,3.05-9.04-1.01-13.14-.07-1.06-.15-2.12-.22-3.18,1.41-1.94,1.25-4.21,1.39-6.45.88-13.68-2.49-27.19-1.57-40.88.18-2.73-.61-5.39-3.65-6.57-.12-2.02-.25-4.05-.37-6.07,3.75-3.01,1.95-5.41-.84-7.71-.13-1.96-.26-3.92-.39-5.88,1.7-4.08,2.78-8.1-1.09-11.67-.11-1.55-.23-3.11-.34-4.66,2.39-8.3,1.13-16.26-2.21-24.03-.16-2.87-.32-5.74-.48-8.61,1.69-3.65,2.54-7.23-.91-10.44-.14-2.88-.29-5.77-.43-8.65,1.73-4.08,2.65-8.1-.97-11.75-.16-2.89-.33-5.77-.49-8.65,1.82-4.07,2.8-8.08-.92-11.72-.12-2.44-.24-4.88-.36-7.31,1.79-4.1,2.65-8.13-.96-11.79-.14-2.87-.29-5.74-.43-8.6,2.39-4.01,1.63-8.47,1.26-12.64-2.22-24.98-1.74-50.11-5.02-75.05-1.94-14.77-2.07-29.78-3.02-44.68-.19-2.91.19-6.13-3.75-7.05-.67-.59-1.35-1.18-2.02-1.77-.23-3.6-3.02-5.55-5.36-7.52-21.05-17.68-39.46-37.81-55.47-60.08-4.97-6.9-11.58-9.64-19.36-11.09-7.78-1.45-15.66-2.64-23.26-4.76-29.71-8.3-60.14-12.87-90.48-17.91-1.85-.31-3.61-.18-5.17,1-1.08-.11-2.16-.23-3.23-.34-3.35-5.16-9.03-3.12-13.64-4.34-17.53-4.64-35.64-5.84-53.46-8.76-2.86-.47-5.9-.67-8.58,1.09-1.06-.1-2.13-.21-3.19-.31-3.84-3.69-8.17-4.68-13.09-2.33-1.06-.12-2.12-.24-3.17-.37-1.38-2.57-4.02-2.8-6.41-3.23-11.12-2.01-22.29-3.72-33.39-5.84-28.88-5.51-57.58-11.81-85.27-21.95-6.84-2.5-11.37-6.93-12.35-14.65-2.17-17.05-4.38-34.1-7.07-51.07-1.28-8.08-.37-16.69-5.01-24.09-.37-1.33-.73-2.66-1.1-3.99,2.56-2,2.29-4.84,1.95-7.51-2.43-19.09-4.59-38.23-7.63-57.23-1.31-8.15-.33-16.33-1.41-24.28-3.9-28.75-4.57-57.66-5.87-86.56-.49-10.85-1.95-21.65-2.44-32.49-.41-9.1,2.13-10.47,11.02-9.12,39.74,6.05,74.96,23.54,109.57,42.7,5.74,3.18,11.63,6.11,17.59,8.87,2.31,1.07,4.71,3.14,7.61,1.26,1.12.65,2.23,1.3,3.34,1.95.89,4.13,3.88,4.97,7.52,4.82.26.17.52.35.77.52.37,2.88,2.82,3.92,4.82,5.31,16.09,11.21,32.16,22.45,48.33,33.54,4.01,2.75,7.27,6.96,12.75,7.15,0,0,.48.37.48.37.68,3.44,2.82,5.06,6.27,5.05.7.58,1.41,1.16,2.11,1.74.36,1.8,1.59,2.41,3.28,2.39.7.58,1.4,1.16,2.1,1.73.11,1.95,1.18,3.34,2.65,4.49,12.22,9.57,24.43,19.15,36.64,28.73,1.48,1.16,3.09,1.82,5,1.52.24.17.47.34.7.51.23,2.92,2.03,3.85,4.68,3.72,1.15,1.04,2.29,2.08,3.44,3.13.23,2.93,2.15,3.77,4.72,3.8,1.15,1,2.29,2.01,3.43,3.01,2.1,5.41,5.27,9.63,11.57,10.35.68.63,1.35,1.26,2.03,1.89,3.94,8.74,11.59,14.21,18.59,20,4.13,3.42,6.74,9.48,13.41,9.37.22.18.45.37.66.55,2.02,5.49,5.34,9.57,11.53,10.47.66.61,1.32,1.23,1.98,1.84,3.08,6.49,7.68,11.44,14.48,14.13.56.38,1.12.75,1.68,1.13.38.33.76.66,1.15.99,1.41,1.74,2.82,3.47,4.22,5.2.36.51.72,1.02,1.09,1.54,0,0,.09.24.08.24.37.34.74.68,1.11,1.02,1.08,1.32,2.15,2.63,3.22,3.94.34.47.68.94,1.03,1.42,1.01,1.29,2.03,2.58,3.03,3.87.32.49.65.99.98,1.48,1.05,1.35,2.1,2.7,3.15,4.05.3.45.6.91.9,1.37,14.83,18.26,28.4,37.42,40.71,57.45,4.71,7.67,4.46,7.8,11.88,2.3,3.09-2.29,6.3-4.41,9.34-6.75,3.25-2.52,6.51-2.89,9.98-.59,19.7,22.97,38.76,46.46,57.12,70.51,5.97,7.83,12.89,15.13,16.56,24.56q-13.82,7.69-3.22,19.58c23.8,26.51,46.05,54.2,65.3,84.23.97,1.52,2.19,2.88,3.29,4.31Z"/><path class="uuid-dfaf0da6-5bbd-424b-8f0c-e0b1b6797ca1" d="M1866.87,974c-3.66-9.43-10.58-16.73-16.56-24.56-18.35-24.05-37.41-47.54-57.12-70.51,46.41-56.65,91.28-114.48,130.83-176.16,8.81-13.74,21.33-17.96,35.05-21.83,5.33-1.5,5.19,2.36,5.04,6.09-1.23,30.94-10.7,59.58-24.08,87.15-1.48,3.06-3.07,6.07-4.51,9.15-2.74,5.89-1.83,7.62,4.77,8.28,8.11.81,16.3-.14,24.42,1.22,8.93,1.49,9.1,1.75,4.29,9.88-10.29,17.42-22.22,33.64-35.33,49.03-6.17,7.24-5.85,8.07,2.42,13.18,19.48,12.02,38.95,24.06,58.35,36.2,1.95,1.22,5.59,1.64,5.13,4.6-.39,2.51-3.76,2.97-5.97,3.94-19.5,8.59-38.95,17.27-57.88,27.08-20.34,10.54-39.98,22.28-59.65,33.99-2.82,1.68-5.3,4.53-9.2,3.27Z"/><path class="uuid-9ee5b6c1-7d31-4329-9f9b-609790519a6a" d="M2277.59,1068.71c.05,8.74-10.51,15.01-18.14,10.66-2.14-1.22-4.2-2.77-5.91-4.53-21.02-21.64-45.29-39.81-66.06-61.69-4.28-4.51-6.82-3.4-9.97,1.05-16.49,23.3-33.19,46.45-49.7,69.74-6.73,9.49-11.95,11.28-19.58,6.32-5.25-3.41-6.5-8.14-4.06-13.54,1.95-4.3,4.45-8.43,7.2-12.29,15.54-21.76,31.03-43.57,47.02-65,4.44-5.95,3.64-9.45-1.61-14.1-20.03-17.71-39.76-35.76-59.57-53.73-3.01-2.73-6.18-5.43-8.05-9.14-2.57-5.09-2.66-10.22,1.57-14.45,4.12-4.11,9.1-4.73,14.4-2.15,3.95,1.92,6.91,5.06,10.07,7.99,18.76,17.43,37.51,34.86,56.37,52.18,6.09,5.59,6.22,5.35,11.13-1.47,16.55-22.99,33.17-45.93,49.78-68.87,5.6-7.74,12.31-9.65,18.51-5.38,6.19,4.26,6.97,11.34,1.38,19.18-16.2,22.68-32.61,45.22-49,67.76-7.56,10.4-7.65,10.36,1.88,19.13,21.85,20.1,43.7,40.19,65.58,60.26,3.59,3.3,6.67,6.82,6.76,12.06Z"/><path class="uuid-9ee5b6c1-7d31-4329-9f9b-609790519a6a" d="M2313.68,1063.15c.09-5.05,2.15-8.32,4.22-11.58,15.8-24.88,33.32-48.6,49.86-72.97,5.54-8.17,5.64-8.46-1.97-14.99-20.83-17.87-39.05-38.52-60.01-56.24-1.38-1.17-2.62-2.51-3.81-3.87-5.28-6.06-5.74-12.74-1.29-17.78,4.44-5.02,11.06-5.34,17.81-.62,6.18,4.32,10.87,10.24,16.21,15.46,15.38,15.06,31.71,29.13,46.55,44.76,5.3,5.58,6.29,5.35,10.52-1.28,14.27-22.37,29.91-43.79,44.96-65.61,1.41-2.04,2.87-4.16,4.71-5.77,3.93-3.45,8.55-4.28,13.24-1.72,4.61,2.52,6.64,6.64,6.07,11.94-.51,4.72-3.26,8.37-5.84,12.1-15.23,21.98-30.32,44.06-45.73,65.91-3.45,4.89-2.95,8.36,1.21,12.26,13.07,12.23,25.78,24.86,39.07,36.84,5.35,4.82,6.31,9.32,3.95,16.01-5.98,17.01-5.73,17.13-18.78,4.35-12.8-12.53-25.69-24.96-38.22-37.75-3.99-4.07-6.35-3.77-9.4.69-16.73,24.52-33.98,48.69-50.17,73.55-6.52,10.01-17.61,7.31-21.65.48-.89-1.51-1.24-3.34-1.52-4.15Z"/><path class="uuid-9ee5b6c1-7d31-4329-9f9b-609790519a6a" d="M1717.24,821.1c-.33-.5-.66-.99-.98-1.48.33.5.66.99.98,1.48Z"/><path class="uuid-9ee5b6c1-7d31-4329-9f9b-609790519a6a" d="M1721.29,826.52c-.3-.46-.6-.92-.9-1.37.3.46.6.92.9,1.37Z"/><path class="uuid-9ee5b6c1-7d31-4329-9f9b-609790519a6a" d="M1713.22,815.75c-.34-.47-.69-.95-1.03-1.42.35.48.69.95,1.03,1.42Z"/><path class="uuid-9ee5b6c1-7d31-4329-9f9b-609790519a6a" d="M1707.78,809.13c-.36-.52-.73-1.03-1.09-1.54.37.52.73,1.03,1.09,1.54Z"/><path class="uuid-9ee5b6c1-7d31-4329-9f9b-609790519a6a" d="M1708.97,810.39c-.37-.34-.74-.68-1.11-1.02.37.34.74.68,1.11,1.02Z"/><path class="uuid-9ee5b6c1-7d31-4329-9f9b-609790519a6a" d="M1702.47,802.39c-.38-.33-.77-.66-1.15-.99.24-.11.48-.17.74-.17.21.36.34.75.41,1.16Z"/><path class="uuid-908b6393-5cdd-4b33-9e1e-cb461db96d6b" d="M1269.52,1854.28c3.09,10.83,9.87,19.7,15.61,29.09,3.98,6.51,8.6,12.63,14.09,20.6-37.95-9.63-72.19-22.85-101.8-46.22-29.29-23.11-53.25-51.29-75.68-81,13.42,30.04,30.72,57.55,51.18,83.1l-.16.11c-3.9-.69-6.74-3.34-10.02-5.24-44.92-26.08-77.29-64.03-103.99-107.85-21.2-34.78-39.35-70.88-53.35-109.1-.43-1.18-1.06-2.28-1.89-3.29,12.18,52.24,30.93,101.77,61.33,147.69-3.99-.43-5.41-2.81-7.08-4.5-30.51-30.88-52.88-67.15-69.95-106.81-15.53-36.08-42.32-135.7-42.52-136.57-12.06-54.53-18.72-109.79-23.05-165.4-1.03-13.27-.81-26.66-3.44-39.8,2.12-4.4,2.49-9.06,2.47-13.89-.1-24.23,0-48.47-.04-72.7-.04-24.07,3.91-47.82,5.93-71.72,3.77-44.5,11.12-88.55,18.74-132.5,5.57-32.14,13.38-63.84,22.59-95.17,6.14-20.87,11.19-42.09,18.25-62.63,11.17-32.54,21.15-65.52,34.59-97.27,2.73-6.45,4.85-13.17,7.25-19.76,26.54-9.92,54.16-11.93,82.12-10.89,11.93.44,23.84,1.62,35.76,2.46,0,0-.04,0-.04,0,.2.64.39,1.29.59,1.93-.05,4.31.18,8.63-.19,12.91-1.57,18.27-4.01,36.49-4.85,54.79-1.84,39.82-3.29,79.66-4.17,119.51-1.19,53.94.62,107.87,1.21,161.81.06,5.64.03,11.31.59,16.91,3.8,38.32,3.65,76.89,7.61,115.2,2.91,28.2,7.17,56.22,12.92,83.93,5.39,25.96,14.09,51.04,22.89,76.09,10.66,30.36,21.91,60.45,34.65,90,7.91,18.33,16.89,36.14,26.05,53.83,13.55,26.15,28.47,51.53,47.2,74.42,7.03,8.58,14.31,16.96,21.43,25.46,1.33,1.59,2.73,3.55,1.21,5.5-1.87,2.39-4.06.83-6.07-.24-44.26-23.72-76.94-58.79-101.24-102.35-6.72-12.04-11.15-25.35-19.95-36.24-.83-1.03-1.35-2.68-2.96-2.43-2.1.34-2.01,2.33-1.92,3.81.66,9.93.87,19.94,2.33,29.76,2.88,19.48,6.56,38.83,9.76,58.26,3.16,19.22,5.93,38.51,9.23,57.71,5.2,30.19,13.56,59.63,22.02,89.01,7.84,27.2,16.41,54.17,27.8,80.21,4.11,9.38,11.77,16.65,14.35,26.7,1,.87.95,2.74,2.72,2.9l-.13-.13ZM1118.51,1772.78c.35.31.7.62,1.05.93-.08-.53-.16-1.05-.25-1.58-.37-.59-.69-1.74-1.49-1.14-.7.52-.15,1.4.69,1.79Z"/><path class="uuid-dfaf0da6-5bbd-424b-8f0c-e0b1b6797ca1" d="M434.05,757.6c19.66,9.46,69.33,42.88,77.59,52.55-4.9,1.56-9.44,3.08-14.03,4.44-8.7,2.58-17.24,5.49-25.07,10.24-5.45,3.3-6.19,7.38-2.74,12.48,6.64,9.79,15.81,16.72,25.75,22.78,28.97,17.67,60.38,29.96,92.04,41.69,9.12,3.38,18.37,6.44,27.55,9.65-4,8.36-11.41,13.88-17.36,20.57-44.37,49.87-84.01,103.23-119.5,159.75-13.74,21.88-26.66,44.19-38.57,67.11-1.54,2.96-2.84,6.21-5.66,8.36-11.5.83-22.99,1.91-34.5,2.41-8.89.38-9.61-.76-7.22-9.39,6.07-21.95,16-42.36,25.55-62.9,3.27-7.03,3.38-6.79-4.11-6.81-16.05-.05-32.15,1.79-48.13-1.48-5.05-1.03-6.19-3.22-4.43-8.05,4.36-11.94,9.27-23.64,14.92-35,2.29-4.59,1.94-7.26-2.98-9.66-9.57-4.66-19-9.64-28.29-14.85-21.99-12.33-43.2-25.77-61.22-43.69-6.51-6.47-6.4-6.64.71-12.94,20.61-18.25,43.62-33.16,66.55-48.19,7.15-4.69,7.29-5.99,1.38-12.25-14.93-15.81-30.1-31.42-42.46-49.45-5.29-7.72-5.15-8.36,4.07-9.66,8.97-1.26,17.99-2.15,26.96-3.42,6.34-.9,7.35-2.88,4.69-8.71-1.97-4.33-4.14-8.57-6.3-12.81-12.81-25.15-19.52-52.06-23.52-79.82-.9-6.26,1.55-7.71,6.97-7.04,6.07.76,12.17,1.24,18.21,2.17,27.63,4.25,54.18,13.02,81.21,19.77,3.93.98,7.72,2.76,11.94,2.14Z"/><path class="uuid-e04f81e5-b9dd-429c-b016-6583352925aa" d="M434.05,757.6c-4.22.61-8.01-1.16-11.94-2.14-27.03-6.75-53.57-15.52-81.21-19.77-6.04-.93-12.14-1.42-18.21-2.17-5.42-.68-7.87.78-6.97,7.04,4,27.77,10.71,54.68,23.52,79.82,2.16,4.24,4.33,8.48,6.3,12.81,2.66,5.83,1.65,7.8-4.69,8.71-8.97,1.28-17.99,2.16-26.96,3.42-9.22,1.29-9.36,1.94-4.07,9.66,12.36,18.03,27.53,33.64,42.46,49.45,5.91,6.26,5.77,7.56-1.38,12.25-22.93,15.03-45.94,29.94-66.55,48.19-7.11,6.3-7.21,6.46-.71,12.94,18.01,17.92,39.23,31.37,61.22,43.69,9.29,5.21,18.72,10.19,28.29,14.85,4.92,2.4,5.26,5.06,2.98,9.66-5.65,11.36-10.56,23.06-14.92,35-1.76,4.83-.62,7.02,4.43,8.05,15.98,3.27,32.08,1.42,48.13,1.48,7.48.02,7.38-.21,4.11,6.81-9.55,20.54-19.48,40.95-25.55,62.9-2.39,8.63-1.67,9.77,7.22,9.39,11.51-.49,23-1.58,34.5-2.41-.59,4.1-2.73,7.61-4.47,11.23-10.21,21.3-20.54,42.55-30.83,63.81-7.58-7.92-12.54-17.68-18.55-26.68-43.74-65.51-78.01-135.49-97.51-212.07-21.18-83.18-30.75-167.55-22.56-253.39,1.57-16.48,4.6-32.75,9.4-48.66,2.8-9.26,8.12-17.15,12.88-25.39,2.41-4.17,5.26-2.35,8.1-1.04,16.25,7.53,32.21,15.61,47.94,24.19,30.66,16.72,60.44,34.89,89.77,53.83,2.06,1.33,4.47,2.27,5.83,4.53Z"/><path class="uuid-0394b179-4ccb-4395-b601-1d611b5efa95" d="M1146.47,755.01c-11.92-.84-23.82-2.02-35.76-2.46-27.96-1.04-55.58.97-82.12,10.89-16.77,5.37-31.34,15.14-46.62,23.44-34.64,18.81-64.48,44.06-94.01,69.91-28.88,25.27-55.31,52.79-80.47,81.64-.72.82-1.8,1.33-2.7,1.98-.28-.22-.56-.45-.84-.67,15.64-27.41,33.95-53.04,52.33-78.65,30.83-42.98,63.71-84.27,101.52-121.33,16.82-16.49,35.59-30.87,55.54-43.6,10.28-6.56,20.67-8.01,32.36-4,32.43,11.13,60.65,29.38,87.25,50.49,4.79,3.8,9.62,7.58,13.53,12.35Z"/><path class="uuid-0394b179-4ccb-4395-b601-1d611b5efa95" d="M1147.01,756.95c-.2-.64-.39-1.29-.59-1.93,11.85-9.48,21.96-20.91,34.06-30.14,16.78-12.81,33.65-25.32,53.25-33.74,22.08-9.49,43.44-10.04,64.32,3.11,11.13,7.01,22.09,14.25,32.48,22.35,2.22,1.73,3.9,3.62,4.25,6.62,2.35,19.79,4.79,39.57,7.2,59.34.36,1.32.73,2.65,1.09,3.98-.81,4.94-3.7,2.75-5.94,1.54-9.56-5.17-19.26-10.02-29.12-14.6-30.74-14.27-62.39-24.47-96.85-22.42-21.44,1.27-42.88,2.62-64.14,5.89Z"/><path class="uuid-50092800-6dfd-4a2d-ad8e-846502376166" d="M731.6,2194.7c6.77,10.24,16.34,20.95,21.61,31.94,19.33,40.29,34.32,95.21,65.99,126.31,30.44,29.9,65.83,53.05,105.19,69.86,1.24.53,2.45,1.13,3.66,1.74.15.08.19.39.67,1.46-41.73,5.02-82.17.65-121.94-11.46-10.92-20.85-21.1-42.06-30.52-63.62-16.68-38.18-31.38-77.14-45.01-116.49-2.35-6.79,1.22-32.48.37-39.74Z"/><path class="uuid-908b6393-5cdd-4b33-9e1e-cb461db96d6b" d="M779.12,1575.52c11.07-3.26,22.41-5.19,33.82-6.77,1.8,9.33,2.98,18.75,4.23,28.17.75,5.62,0,11.93,4.5,16.64,2.76,29.5,7.75,58.64,13.92,87.59.32,1.52,1.02,2.96,1.55,4.43.44,2.5.88,5,1.32,7.5,2,9.03,2.82,18.36,6.71,26.93-.09,9.29,3.3,18.07,3.98,27.25l.02-.02c-6.36-9.05-12.72-18.11-19.08-27.17-2.78-8.38-7.68-15.77-11.24-23.78-1.16-2.6-3.77-8.37-5.85-12.9-6.89-14.99-12.16-30.62-17.25-46.3-.65-11.4-4.91-22.01-7.43-32.99-3.68-16.1-7.63-32.1-9.21-48.59Z"/><path class="uuid-b947d964-96b6-4187-a295-3730d2d4a6a6" d="M804.78,940.42c-.28.27-.56.54-.84.81,0-.49,0-.99,0-1.48.28.22.56.45.84.67Z"/><path class="uuid-dfaf0da6-5bbd-424b-8f0c-e0b1b6797ca1" d="M679.03,1883c.07.45.13.89.2,1.34-.19-.28-.43-.54-.54-.84-.04-.11.22-.33.35-.5Z"/><path class="uuid-50092800-6dfd-4a2d-ad8e-846502376166" d="M1147.01,756.95c21.26-3.28,42.7-4.62,64.14-5.89,34.46-2.05,66.11,8.15,96.85,22.42,9.86,4.58,19.56,9.43,29.12,14.6,2.24,1.21,5.13,3.4,5.94-1.54,4.64,7.4,3.73,16.01,5.01,24.1,2.69,16.97,4.9,34.02,7.07,51.07.98,7.71,5.52,12.14,12.35,14.65,27.69,10.15,56.39,16.44,85.27,21.95,11.1,2.12,22.27,3.83,33.39,5.84,2.39.43,5.03.66,6.41,3.23,4.31,9.88,12.17,17.3,18.24,25.96,19.17,27.33,35.69,56.2,51.42,85.57,24.12,45.04,44.37,91.83,60.75,140.16,20.37,60.12,37.94,121.1,50.21,183.45,6.43,32.66,12.29,65.46,17.39,98.35,2.42,15.59,2.88,31.54,3.47,47.36,1.38,36.88,2.55,73.76,3.32,110.67.51,24.69.35,49.37.86,74.05.33,16.27-3.07,32.52-.24,48.82.44,2.53-.76,4.43-3.65,4.69-36.04-30.82-65.42-67.68-94.76-104.67,1.01,3.33,2.57,6.25,4.11,9.19,18.48,35.34,77.31,112.78,99.19,146.05-5.69.88-56.72-46.43-58.69-48.18-55.15-49.14-96.62-108.62-131.28-173.26-.52-.98-1.21-3.13-1.21-3.13l-13.51-23.47s-.69-3.51-1.48-5.11c-21.74-43.94-39.53-89.47-54.59-136.08-1.55-4.79-3.34-9.51-5.01-14.27-.58,29.99-2.31,59.57-5.57,89.04-2.46,22.27-4.2,44.67-9.68,66.5-1.49,7.65-2.53,10.22-4.23,21.9-10.41,82.22-59.89,215.38-87.6,234.95,9.21-80.57,10.71-161.02,5.31-242.86-2.14,7.12-1.62,13.42-2.24,19.55-2.81,27.93-5.33,55.89-9.86,83.6-.34,2.11.57,2.87,1.68,3.91,2.25,2.09,4.54,4.13,7.59,7.41-12.2-3.8-10.52,4.44-11.43,10.63-5.55,37.88-11.75,75.67-15.29,113.82-3.67,39.55-3.1,78.77,8.38,117.22.18.6.02,1.31.02,3.52-6.05-5.81-11.5-10.7-16.55-15.96-8.49-8.84-15.93-18.57-23.42-28.25-1.27-1.64-1.8-4.35-4.71-4.25,0,0,.13.13.13.13.4-2.2-.27-3.38-2.72-2.9-2.59-10.05-10.24-17.32-14.35-26.7-11.4-26.04-19.97-53.01-27.8-80.21-8.46-29.37-16.82-58.82-22.02-89.01-3.31-19.2-6.07-38.48-9.23-57.71-3.2-19.43-6.87-38.79-9.76-58.26-1.45-9.82-1.67-19.83-2.33-29.76-.1-1.48-.18-3.47,1.92-3.81,1.6-.26,2.13,1.4,2.96,2.43,8.8,10.89,13.23,24.2,19.95,36.24,24.3,43.56,56.98,78.63,101.24,102.35,2,1.07,4.2,2.63,6.07.24,1.52-1.96.12-3.92-1.21-5.5-7.12-8.5-14.41-16.88-21.43-25.46-18.73-22.89-33.65-48.27-47.2-74.42-9.16-17.69-18.14-35.5-26.05-53.83-12.75-29.55-24-59.64-34.65-90-8.79-25.05-17.49-50.12-22.89-76.09-5.76-27.71-10.01-55.72-12.92-83.93-3.96-38.31-3.81-76.88-7.61-115.2-.55-5.6-.52-11.27-.59-16.91-.59-53.93-2.41-107.87-1.21-161.81.88-39.85,2.33-79.69,4.17-119.51.84-18.3,3.28-36.52,4.85-54.79.37-4.28.14-8.61.19-12.91Z"/><path class="uuid-03376b92-35fc-41b7-8084-23b4b3fd0744" d="M1910.09,1769.82c-2.06,7.61-7.47,13.32-11.74,19.56-6.19,9.06-10.97,19.19-19.26,26.74-.92-.67-1.84-1.34-2.77-2.01-10.92-19.56-21.82-39.12-33.89-58.01-2.28-5-5.41-9.42-9.21-13.38-7.81-12.53-16.5-24.39-27.49-34.33-4.44-4.01-6.48-8.47-5.92-14.35.97-10.06-1.12-20.31,1.86-30.25,16.68-7.17,32.87-5.78,48.65,2.78,1.82,3.63,3.33,7.46,5.51,10.85,17.71,27.61,34.64,55.69,50.67,84.31,1.19,2.69,2.38,5.38,3.58,8.07Z"/><path class="uuid-03376b92-35fc-41b7-8084-23b4b3fd0744" d="M1897.93,1484.06c.24,2.14-.52,4.03-1.57,5.8-6.82,11.49-13.64,22.99-20.55,34.44-1.26,2.09-2.47,4.4-5.14,5.17-31.6-40.85-64.72-80.43-99.14-118.93-2.72-3.05-3.99-6.41-3.98-10.48.04-11.32.07-22.65-.2-33.97-.11-4.54,1.4-6.04,5.94-5.38,7.61,1.12,14.4,4.03,20.35,8.75,8.15,6.47,16.1,13.2,24.13,19.83,2.62,2.99,3.72,6.42,4.19,10.43,1.51,13.02,3.43,25.99,6.02,38.87,1.06,5.27,3.61,8.3,8.85,9.78,13.96,3.93,28.09,6.95,42.45,8.95,6.22,8.91,12.43,17.82,18.65,26.74Z"/><path class="uuid-03376b92-35fc-41b7-8084-23b4b3fd0744" d="M1912.17,1881.06c-.4-3,1.55-5.09,2.96-7.32,8.87-14.08,18.02-28,25.57-42.87.82-1.61,1.65-3.24,3.61-3.78,10.75,22.72,18.82,46.55,28.82,69.57,8.14,18.73,5.21,37.72,3.5,56.83-.06.67-.17,1.35-.32,2.01-1.07,4.71.2,13.41-3.07,13.42-6.5.02-13.66-3.54-17.71-9.7-7.56-11.5-14.79-23.22-20.29-35.91-5.47-12.62-12.52-24.4-19.45-36.23-1.21-2-2.41-4.01-3.62-6.01Z"/><path class="uuid-50092800-6dfd-4a2d-ad8e-846502376166" d="M1912.17,1881.06c1.21,2,2.41,4.01,3.62,6.01-12.1,6.24-15.83,19.35-23.69,29.07-12.48,15.44-24.44,31.29-36.76,46.85-5.22,6.58-11.67,11.04-20.54,11.7-11.93.89-23.79,2.46-35.81,2.09-5.64-.17-8.23-2.72-8.26-8.33-.09-12.89-.41-25.77,2.56-38.46.64-2.76.97-5.41,4.35-6.05-.11,13.59-.05,27.18-.42,40.76-.17,6.27,2.4,8.52,8.47,8.21,11.48-.58,23,.06,34.32-2.99,5.37-1.45,8.57-5.09,11.44-9.01,17.91-24.48,37.51-47.71,54.32-73,1.73-2.61,3.24-5.52,6.39-6.83Z"/><path class="uuid-50092800-6dfd-4a2d-ad8e-846502376166" d="M1590.93,922.72c1.56-1.17,3.32-1.3,5.17-1,30.34,5.04,60.77,9.61,90.48,17.91,7.61,2.12,15.48,3.31,23.26,4.76,7.78,1.45,14.39,4.18,19.36,11.09,16.01,22.27,34.43,42.4,55.47,60.08,2.34,1.97,5.13,3.92,5.36,7.52-10.82-6.77-20.06-15.42-28.62-24.75-12.98-14.14-26.4-27.95-36.81-44.24-2.98-4.67-7.87-5.72-12.79-6.78-37.78-8.16-75.53-16.49-113.69-22.75-2.44-.4-4.8-1.22-7.2-1.84Z"/><path class="uuid-50092800-6dfd-4a2d-ad8e-846502376166" d="M1876.32,1814.12c.92.67,1.85,1.34,2.77,2.01-6.22,14.53-17,26.07-25.88,38.82-14.84,21.32-31.6,41.19-48.5,60.91-2.29,2.67-2.98,6.82-7,7.97,1.82-9.17,8.84-15.08,14.25-21.82,20.96-26.07,41.56-52.4,60.35-80.09,1.63-2.4,2.68-5.19,4-7.8Z"/><path class="uuid-50092800-6dfd-4a2d-ad8e-846502376166" d="M1792.05,1024.85c3.94.92,3.56,4.14,3.75,7.05.95,14.9,1.08,29.91,3.02,44.68,3.27,24.94,2.8,50.07,5.02,75.05.37,4.17,1.12,8.63-1.26,12.64-2.23-6.81-1.37-13.95-1.93-20.89-3.19-39.48-5.79-79.01-8.59-118.53Z"/><path class="uuid-50092800-6dfd-4a2d-ad8e-846502376166" d="M1512.02,910.38c2.68-1.77,5.72-1.56,8.58-1.09,17.82,2.92,35.93,4.13,53.46,8.76,4.61,1.22,10.29-.82,13.64,4.34-25.23-4-50.45-8-75.68-12Z"/><path class="uuid-50092800-6dfd-4a2d-ad8e-846502376166" d="M1813.75,1311.8c3.04,1.18,3.83,3.85,3.65,6.57-.92,13.69,2.45,27.2,1.57,40.88-.14,2.24.02,4.5-1.39,6.45-2.48-7.23-1.02-14.79-1.74-22.18-1.03-10.53-2.54-21.08-2.08-31.72Z"/><path class="uuid-50092800-6dfd-4a2d-ad8e-846502376166" d="M1833.22,1742.73c3.8,3.96,6.93,8.38,9.21,13.38-4.46,2.78-10.66,1.24-13.24-3.54-2.55-4.74-1.03-8.08,4.03-9.84Z"/><path class="uuid-50092800-6dfd-4a2d-ad8e-846502376166" d="M1808.52,1251.78c3.35,7.77,4.6,15.74,2.21,24.03-1.48-7.95-2.5-15.93-2.21-24.03Z"/><path class="uuid-50092800-6dfd-4a2d-ad8e-846502376166" d="M1495.74,907.74c4.92-2.35,9.24-1.36,13.09,2.33-4.53.16-8.86-.79-13.09-2.33Z"/><path class="uuid-50092800-6dfd-4a2d-ad8e-846502376166" d="M1817.79,1368.88c4.06,4.09,2.81,8.59,1.01,13.14-1.7-4.28-.9-8.74-1.01-13.14Z"/><path class="uuid-50092800-6dfd-4a2d-ad8e-846502376166" d="M1804.32,1191.97c3.72,3.64,2.74,7.65.92,11.72-1.57-3.81-.99-7.78-.92-11.72Z"/><path class="uuid-50092800-6dfd-4a2d-ad8e-846502376166" d="M1803,1172.86c3.6,3.67,2.74,7.69.96,11.79-1.66-3.82-1.07-7.83-.96-11.79Z"/><path class="uuid-50092800-6dfd-4a2d-ad8e-846502376166" d="M1811.07,1280.48c3.87,3.56,2.78,7.59,1.09,11.67-1.74-3.76-1.04-7.75-1.09-11.67Z"/><path class="uuid-50092800-6dfd-4a2d-ad8e-846502376166" d="M1805.73,1212.34c3.62,3.65,2.69,7.67.97,11.75-1.72-3.8-1.06-7.8-.97-11.75Z"/><path class="uuid-50092800-6dfd-4a2d-ad8e-846502376166" d="M1807.12,1232.74c3.45,3.2,2.6,6.79.91,10.44-1.55-3.37-1.11-6.91-.91-10.44Z"/><path class="uuid-50092800-6dfd-4a2d-ad8e-846502376166" d="M1812.55,1298.03c2.78,2.3,4.58,4.71.84,7.71-1.19-2.47-1.07-5.09-.84-7.71Z"/><path class="uuid-6b23f6f7-6040-4dc9-a9cb-046e284d54c6" d="M1587.99,2393.17s-.04-.04-.04-.04c0,0,.04.04.04.04Z"/><path class="uuid-dfaf0da6-5bbd-424b-8f0c-e0b1b6797ca1" d="M1634.19,2206.62c-.12.86-.48,1.48-1.47,1.48-.16-1.14.68-1.28,1.47-1.48Z"/><path class="uuid-50092800-6dfd-4a2d-ad8e-846502376166" d="M2010.74,1522.68c-14.02-1.64-22.79,6.81-30.88,16.31-2.52,2.97-1.94,6.89-1.79,10.49.87,21.26,1.81,42.52,2.73,63.78-13.38-27.82-29.17-54.27-45.47-80.44,4.62-15.41,11.97-29.76,17.27-44.9.37-1.07.85-2.09,1.24-3.16,6.86-18.87,3.87-15.59,22.95-13.32,10.05,1.19,20.26,1.72,30.07,4.62.09,13.63,4.7,26.43,7.28,39.6.64,3.27,1.33,6.42-3.4,7.02Z"/><path class="uuid-50092800-6dfd-4a2d-ad8e-846502376166" d="M1549.87,671.47c-5.47-.18-8.74-4.4-12.75-7.15-16.17-11.09-32.24-22.33-48.33-33.54-1.99-1.39-4.44-2.43-4.82-5.31,23.02,13.83,45.01,29.13,65.9,45.99Z"/><path class="uuid-50092800-6dfd-4a2d-ad8e-846502376166" d="M1608.41,717.5c-1.91.3-3.52-.35-5-1.52-12.21-9.58-24.43-19.16-36.64-28.73-1.47-1.15-2.54-2.54-2.65-4.49,15.4,10.78,30.42,22.04,44.3,34.74Z"/><path class="uuid-50092800-6dfd-4a2d-ad8e-846502376166" d="M1670.98,773.29c-6.67.11-9.28-5.94-13.41-9.37-7-5.8-14.65-11.26-18.59-20,11.17,9.24,21.74,19.13,32,29.37Z"/><path class="uuid-50092800-6dfd-4a2d-ad8e-846502376166" d="M1699.64,800.28c-6.8-2.69-11.4-7.64-14.48-14.13,5.88,3.63,10.42,8.64,14.48,14.13Z"/><path class="uuid-50092800-6dfd-4a2d-ad8e-846502376166" d="M1683.18,784.31c-6.19-.91-9.51-4.98-11.53-10.47,4.61,2.65,8.06,6.58,11.53,10.47Z"/><path class="uuid-50092800-6dfd-4a2d-ad8e-846502376166" d="M1636.95,742.02c-6.3-.71-9.47-4.93-11.57-10.35,4.66,2.56,7.93,6.65,11.57,10.35Z"/><path class="uuid-50092800-6dfd-4a2d-ad8e-846502376166" d="M1483.21,624.96c-3.63.15-6.63-.69-7.52-4.82,2.51,1.61,5.01,3.21,7.52,4.82Z"/><path class="uuid-50092800-6dfd-4a2d-ad8e-846502376166" d="M1556.62,676.89c-3.46.01-5.59-1.61-6.27-5.05,2.64,1,4.56,2.89,6.27,5.05Z"/><path class="uuid-50092800-6dfd-4a2d-ad8e-846502376166" d="M1613.79,721.73c-2.65.13-4.46-.81-4.68-3.72,1.56,1.24,3.12,2.48,4.68,3.72Z"/><path class="uuid-50092800-6dfd-4a2d-ad8e-846502376166" d="M1621.95,728.66c-2.57-.04-4.49-.87-4.72-3.8,1.98.77,3.5,2.1,4.72,3.8Z"/><path class="uuid-50092800-6dfd-4a2d-ad8e-846502376166" d="M1562.01,681.02c-1.69.02-2.92-.59-3.28-2.39,1.1.8,2.19,1.59,3.28,2.39Z"/><path class="uuid-50092800-6dfd-4a2d-ad8e-846502376166" d="M1906.51,1761.75c-16.04-28.62-32.96-56.7-50.68-84.31-2.18-3.4-3.69-7.22-5.51-10.85,5.69-4.58,9.8-10.58,14.02-16.37,14.61-20.03,29.03-40.2,40.81-62.11,1.25-2.32,2.26-5.02,5.29-5.79,11.65,17.7,23.31,35.41,34.96,53.11,5.21,7.91,10.41,15.84,17.02,22.7-5.06,13.49-10.99,26.6-16.77,39.79-8.35,19.05-17.93,37.43-28.43,55.34-2.38,4.06-5.3,7.99-10.71,8.49Z"/><path class="uuid-03376b92-35fc-41b7-8084-23b4b3fd0744" d="M1962.42,1658.13c-6.61-6.86-11.81-14.78-17.02-22.7-11.65-17.7-23.31-35.41-34.96-53.11.23-1.55.05-3.31.75-4.61,7.97-15,16.08-29.93,24.15-44.89,16.31,26.17,32.09,52.62,45.47,80.44,3.49,17.76,3.34,35.72,2.89,53.7-8.23-.19-14.86-4.26-21.28-8.83Z"/><path class="uuid-50092800-6dfd-4a2d-ad8e-846502376166" d="M1897.93,1484.06c-6.22-8.91-12.43-17.83-18.65-26.74,8.49,1.16,16.96,2.39,25.46,3.45,5.02.63,6.29,3.08,3.74,7.31-3.3,5.46-4.5,12.33-10.55,15.98Z"/><path class="uuid-50092800-6dfd-4a2d-ad8e-846502376166" d="M821.67,1613.56c-4.5-4.71-3.75-11.02-4.5-16.64-1.25-9.42-8.45-46.58-10.25-55.91,10.63-3.16,38.44-2.76,49.4-3.78-6.67,17.25-27.22,59.46-34.65,76.34Z"/><path class="uuid-b947d964-96b6-4187-a295-3730d2d4a6a6" d="M1350.56,1825.31c-.54.09-1.09.17-1.63.26.21-.48.42-.97.63-1.45.33.4.66.8,1,1.19Z"/><path class="uuid-6b23f6f7-6040-4dc9-a9cb-046e284d54c6" d="M1172.93,1859.85c.16.12.32.24.48.36-.21-.08-.42-.17-.64-.25,0,0,.15-.11.15-.11Z"/><path class="uuid-b947d964-96b6-4187-a295-3730d2d4a6a6" d="M1024.3,1826.42c.22.53.76,1.36.6,1.54-.72.78-1.45.3-2.06-.34.49-.4.97-.8,1.46-1.2Z"/><path class="uuid-dfaf0da6-5bbd-424b-8f0c-e0b1b6797ca1" d="M1266.94,1851.51c2.45-.48,3.12.7,2.72,2.9-1.77-.15-1.72-2.02-2.72-2.9Z"/><path class="uuid-dfaf0da6-5bbd-424b-8f0c-e0b1b6797ca1" d="M1118.51,1772.78c-.84-.39-1.38-1.27-.69-1.79.8-.6,1.12.55,1.49,1.14-.29.19-.56.41-.8.65Z"/><path class="uuid-dfaf0da6-5bbd-424b-8f0c-e0b1b6797ca1" d="M1119.31,1772.13c.08.53.16,1.05.25,1.58-.35-.31-.7-.62-1.05-.93.25-.24.51-.46.8-.65Z"/><polygon class="uuid-6b23f6f7-6040-4dc9-a9cb-046e284d54c6" points="849.15 1767.26 849.32 1767.42 849.17 1767.25 849.15 1767.26"/><path class="uuid-50092800-6dfd-4a2d-ad8e-846502376166" d="M1962.42,1658.13c6.42,4.57,13.04,8.64,21.28,8.83.8,5.61,1.72,11.22,1.29,16.92-.15,1.97.45,4.81-1.77,5.41-2.66.72-2.65-2.44-3.61-4.06-2.66-4.51-3.02-9.98-6.06-14.36-1.8-2.59-3.04-6.23-6.7-6.02-3.57.2-3.86,4.04-4.89,6.66-13.05,32.98-29.26,64.33-48.41,94.17-.96,1.5-2.29,2.77-3.44,4.15-1.19-2.69-2.39-5.38-3.58-8.07,5.41-.5,8.33-4.43,10.71-8.49,10.5-17.92,20.08-36.3,28.43-55.34,5.78-13.19,11.71-26.3,16.77-39.79Z"/><path class="uuid-908b6393-5cdd-4b33-9e1e-cb461db96d6b" d="M774.54,1538.14c-6.15-43.54-9.18-87.29-8.53-131.29.33-22.22,3.12-44.25,4.92-66.35,3.1-37.99,9.5-75.5,16.84-112.86,5.38-27.38,12.81-54.3,21.48-80.77,7.53-23.02,13.14-46.68,22.57-69.06,9.23-21.9,18.3-43.89,28.21-65.48,5.19-11.3,9.66-22.95,15.86-33.81,9.88-17.29,19.17-34.91,29.05-52.2,22.28-38.99,47.88-77.89,74.78-113.82,2.18-2.91,32.16-37.82,48.59-48.97-8.75,10.07-36.18,42.49-42.07,55.16-16.94,33.81-34.74,67.04-49.82,101.75-15.53,35.74-29.93,71.9-42.53,108.75-11.13,32.56-21.73,65.31-31.12,98.43-13.92,49.09-24.16,99.01-33.35,149.13-4.49,24.48-8.19,49.19-10.69,73.95-3.26,32.19-7.63,64.31-7.59,96.79.03,22.39-.91,44.78-1.12,67.18-.07,7.68,4.05,56.07,4.57,63.74.22,3.3-20.33,21.25-32.09,7.97-4.55-5.14-7.72-46.47-7.97-48.22Z"/><path class="uuid-7b2b1d90-6b69-4ae1-82bb-bcf470cb6496" d="M2010.74,1522.68c24.99,45.23,47.08,91.87,67.94,139.12,10.7,24.24,22.01,48.22,28.72,74,6.29,24.19,9.06,48.98,12.46,73.66.43,3.11.17,6.35-.01,9.51-1.09,18.78-12.84,28.31-31.45,25.24-14.18-2.33-27.24-8.47-40.85-12.73-3.07-.96-6.06-1.89-9.3-1.41-18.49-6.65-36.88-13.62-55.72-19.29-4.1-1.23-4.68-4.45-4.48-8.08.68-12.42,1.6-24.83,1.98-37.25.34-11.01.07-22.04.07-33.06-4.04,12-8.06,24.16-12.22,36.27-5.96,17.35-12.96,34.27-21.17,50.69-1.22,2.45-2.2,4.96-2.4,7.72-1.95.54-2.79,2.17-3.61,3.78-7.55,14.87-16.69,28.79-25.57,42.87-1.41,2.24-3.37,4.32-2.96,7.32-3.16,1.32-4.66,4.23-6.39,6.83-16.82,25.29-36.42,48.52-54.32,73-2.87,3.92-6.08,7.56-11.44,9.01-11.33,3.05-22.85,2.41-34.32,2.99-6.08.31-8.65-1.94-8.47-8.21.37-13.58.31-27.17.42-40.76,0,0,.08-.1.08-.1,4.01-1.15,4.71-5.29,7-7.97,16.9-19.72,33.66-39.59,48.5-60.91,8.88-12.75,19.65-24.29,25.88-38.82,8.29-7.55,13.07-17.69,19.26-26.74,4.27-6.24,9.67-11.95,11.74-19.56,1.16-1.38,2.48-2.65,3.44-4.15,19.15-29.84,35.36-61.19,48.41-94.17,1.04-2.62,1.33-6.46,4.89-6.66,3.66-.21,4.9,3.43,6.7,6.02,3.04,4.38,3.4,9.85,6.06,14.36.96,1.62.94,4.78,3.61,4.06,2.22-.6,1.62-3.44,1.77-5.41.44-5.7-.49-11.3-1.29-16.91.45-17.98.6-35.94-2.89-53.7-.91-21.26-1.85-42.52-2.72-63.78-.15-3.6-.73-7.52,1.79-10.49,8.09-9.51,16.85-17.95,30.88-16.31Z"/><rect class="uuid-eddd921f-a7c8-4197-95f6-1c31e2117b69" x="1024.59" y="1686.32" width="188.36" height="12.13" rx="3.54" ry="3.54" transform="translate(175.55 -103.76) rotate(5.76)"/><rect class="uuid-7bf2b600-612b-4a23-bd26-3a81b9fa87b6" x="1033.89" y="1681.85" width="193.46" height="10.6" rx="3.54" ry="3.54" transform="translate(-881.54 1411.52) rotate(-48.37)"/></g><g id="uuid-1461d0bc-0fbd-4f82-89ff-c4f7ef085dee"><path class="uuid-b7ed512f-a2c7-48e8-be1f-c12aa364e467" d="M1984.98,1683.88c.44-5.7-.49-11.3-1.29-16.91.45-17.98.6-35.94-2.89-53.7-.91-21.26-1.85-42.52-2.72-63.78-.15-3.6-.73-7.52,1.79-10.49,8.09-9.51,16.85-17.95,30.88-16.31,24.99,45.23,47.08,91.87,67.94,139.12,10.7,24.24,22.01,48.22,28.72,74,6.29,24.19,9.06,48.98,12.46,73.66.43,3.11.17,6.35-.01,9.51-1.09,18.78-12.84,28.31-31.45,25.24-14.18-2.33-27.24-8.47-40.85-12.73-3.07-.96-6.06-1.89-9.3-1.41-18.49-6.65-36.88-13.62-55.72-19.29-4.1-1.23-4.68-4.45-4.48-8.08.68-12.42,1.6-24.83,1.98-37.25.34-11.01.07-22.04.07-33.06"/><path class="uuid-03376b92-35fc-41b7-8084-23b4b3fd0744" d="M1689.98,549.41c4.04-23.89,6.89-48.06,12.37-71.61,11.62-49.95,26.42-98.92,52.42-143.72.89-1.53,1.3-3.33,1.93-5C1860.37,127.7,1997.91,61.48,2041.08,0c44.2,97.08,70.26,174.4,51.67,329.08-.72,11.57-3.51,22.8-6.29,33.96-9.75,39.18-22.9,77.22-39.15,114.2-2.27,5.16-4.56,10.37-5.41,16.04-1.29,2.11-2.78,4.13-3.86,6.35-18.64,38.3-37.57,76.46-58.81,113.41-4.41,7.67-8.63,15.44-13.9,24.89,7.82-4.24,13.64-7.68,19.7-10.6,7.3-3.51,9.85-2.51,13.34,4.87,5.67,11.98,8.69,24.8,11.29,37.68,13.33,66.04,13.89,132.33,3.44,198.78-1.78,11.33-4.09,22.57-6.17,33.94,3.19.53,5.25-1.13,7.39-2.15,15.77-7.51,31.97-13.95,48.2-20.36,6.08-2.4,12.61-3.79,18.01-7.78,21.37-7.48,42.56-15.49,64.29-21.91,62.64-18.52,126.42-30.42,191.84-32.18,54.33-1.46,106.78,9.2,158.28,25.65,5.41,1.73,7.86,4.66,8.86,10.4,11.77,68.09,23.91,136.12,35.71,204.21,2.82,16.29,4.65,32.74,7.1,49.1.86,5.7-.85,9.97-5.13,13.84-39,35.25-78.44,69.98-119.14,103.27-10.78,8.82-22.94,13.49-36.75,14.04-3.27.13-7.12.95-8.14-3.86,1.37-3.81,2.75-7.65,4.13-11.48,11.51-31.98,23.04-63.95,34.51-95.95.64-1.8,2.43-3.91.7-5.64-1.64-1.64-3.87-.14-5.78.34-9.02,2.24-17.98,4.72-27.03,6.8-76.52,17.55-153.52,13.76-230.55,4.69-36.7-4.32-72.87-11.91-108.91-20.04-3.25-.95-6.45-2.09-9.75-2.81-34.74-7.54-68.58-18.26-102.52-28.66-1.1-1.43-2.32-2.8-3.29-4.31-19.25-30.03-41.5-57.73-65.3-84.23q-10.64-11.85,3.22-19.58c3.9,1.25,6.38-1.59,9.2-3.27,19.67-11.71,39.31-23.45,59.65-33.99,18.93-9.81,38.38-18.49,57.88-27.08,2.21-.97,5.58-1.43,5.97-3.94.46-2.96-3.17-3.37-5.13-4.6-19.4-12.15-38.87-24.18-58.35-36.2-8.27-5.11-8.59-5.94-2.42-13.18,13.12-15.39,25.05-31.61,35.33-49.03,4.81-8.14,4.64-8.39-4.29-9.88-8.12-1.36-16.31-.42-24.42-1.22-6.6-.66-7.51-2.38-4.77-8.28,1.43-3.08,3.02-6.09,4.51-9.15,13.39-27.57,22.86-56.21,24.08-87.15.15-3.73.29-7.59-5.04-6.09-13.72,3.87-26.24,8.09-35.05,21.83-39.55,61.68-84.42,119.51-130.83,176.16-3.48-2.29-6.73-1.92-9.98.59-3.04,2.35-6.25,4.47-9.34,6.75-7.42,5.5-7.17,5.37-11.88-2.3-12.31-20.04-25.88-39.2-40.71-57.45-.3-.45-.59-.91-.89-1.36-1.05-1.35-2.1-2.7-3.16-4.06-.33-.49-.65-.99-.98-1.48-1.01-1.29-2.03-2.58-3.04-3.87-.34-.47-.68-.94-1.02-1.41-1.08-1.32-2.15-2.63-3.23-3.95-.37-.34-.74-.68-1.11-1.02,0,0-.09-.24-.09-.24-.36-.51-.72-1.02-1.08-1.53-1.41-1.74-2.82-3.47-4.23-5.21-.07-.41-.21-.8-.41-1.16-.14-1.35-.2-2.71-.43-4.04-9.22-52.55-15.01-105.43-15.67-158.83-.37-29.74,2.32-59.32,4.02-88.95ZM2277.59,1068.71c-.09-5.23-3.17-8.76-6.76-12.06-21.87-20.07-43.73-40.16-65.58-60.26-9.53-8.77-9.44-8.73-1.88-19.13,16.4-22.54,32.8-45.08,49-67.76,5.6-7.84,4.81-14.92-1.38-19.18-6.21-4.27-12.91-2.35-18.51,5.38-16.61,22.94-33.23,45.88-49.78,68.87-4.91,6.82-5.04,7.06-11.13,1.47-18.86-17.32-37.62-34.75-56.37-52.18-3.16-2.93-6.12-6.07-10.07-7.99-5.29-2.58-10.28-1.96-14.4,2.15-4.24,4.23-4.15,9.35-1.57,14.45,1.87,3.71,5.03,6.41,8.05,9.14,19.8,17.97,39.54,36.02,59.57,53.73,5.25,4.64,6.05,8.14,1.61,14.1-15.99,21.43-31.47,43.24-47.02,65-2.75,3.85-5.25,7.98-7.2,12.29-2.44,5.4-1.19,10.12,4.06,13.54,7.62,4.96,12.85,3.17,19.58-6.32,16.51-23.29,33.21-46.44,49.7-69.74,3.16-4.46,5.69-5.57,9.97-1.05,20.77,21.88,45.04,40.05,66.06,61.69,1.72,1.77,3.77,3.31,5.91,4.53,7.63,4.35,18.19-1.92,18.14-10.66ZM2313.68,1063.15c.29.81.63,2.64,1.52,4.15,4.04,6.83,15.13,9.52,21.65-.48,16.19-24.86,33.44-49.03,50.17-73.55,3.05-4.46,5.41-4.77,9.4-.69,12.52,12.79,25.42,25.22,38.22,37.75,13.06,12.78,12.8,12.66,18.78-4.35,2.35-6.69,1.39-11.19-3.95-16.01-13.29-11.98-26-24.61-39.07-36.84-4.16-3.9-4.67-7.36-1.21-12.26,15.41-21.85,30.5-43.93,45.73-65.91,2.59-3.73,5.33-7.38,5.84-12.1.57-5.29-1.45-9.42-6.07-11.94-4.69-2.56-9.31-1.73-13.24,1.72-1.84,1.62-3.3,3.73-4.71,5.77-15.05,21.83-30.7,43.25-44.96,65.61-4.23,6.63-5.22,6.87-10.52,1.28-14.84-15.63-31.17-29.71-46.55-44.76-5.34-5.23-10.03-11.15-16.21-15.46-6.76-4.72-13.38-4.4-17.81.62-4.46,5.04-4,11.72,1.29,17.78,1.19,1.36,2.43,2.71,3.81,3.87,20.97,17.72,39.18,38.37,60.01,56.24,7.61,6.53,7.52,6.82,1.97,14.99-16.54,24.38-34.06,48.09-49.86,72.97-2.07,3.26-4.13,6.54-4.22,11.58Z"/><path class="uuid-e04f81e5-b9dd-429c-b016-6583352925aa" d="M1979.24,613.05c-4.41,7.67-8.63,15.44-13.9,24.89,7.82-4.24,13.64-7.68,19.7-10.6,7.3-3.51,9.85-2.51,13.34,4.87,5.67,11.98,8.69,24.8,11.29,37.68,13.33,66.04,13.89,132.33,3.44,198.78-1.78,11.33-4.09,22.57-6.17,33.94-.53,1.37-5.22,5.87-7.36,3.11-1.83-2.37-3.17-3.37-5.13-4.6-19.4-12.15-38.87-24.18-58.35-36.2-8.27-5.11-8.59-5.94-2.42-13.18,13.12-15.39,25.05-31.61,35.33-49.03,4.81-8.14,4.64-8.39-4.29-9.88-8.12-1.36-16.31-.42-24.42-1.22-6.6-.66-7.51-2.38-4.77-8.28,1.43-3.08,3.02-6.09,4.51-9.15,13.39-27.57,22.86-56.21,24.08-87.15.15-3.73.29-7.59-5.04-6.09-13.72,3.87-26.24,8.09-35.05,21.83"/><path class="uuid-9ee5b6c1-7d31-4329-9f9b-609790519a6a" d="M1885.61,237.94c7.09-.2,10.35,4.27,13,10.04,11.89,25.95,24.14,51.74,35.82,77.79,2.69,6.01,5.53,7.52,11.87,5.51,25.92-8.22,51.98-15.97,78.01-23.85,3.68-1.12,7.4-2.23,11.17-2.92,5.78-1.06,10.52.85,12.74,6.49,2.22,5.64.94,10.78-4.13,14.48-3.9,2.85-8.57,4.11-13.11,5.5-24.05,7.37-48.11,14.7-72.19,21.94-10.22,3.07-10.61,3.71-5.94,13.62,10.9,23.17,21.83,46.32,32.74,69.49,1.74,3.69,3.6,7.4,3.82,11.55.32,5.86-2.41,10.18-7.77,12.33-5.11,2.05-9.47.14-12.41-4.28-2.75-4.14-5.34-8.44-7.44-12.94-11.41-24.43-22.78-48.88-33.83-73.47-2.26-5.03-4.77-6.08-9.92-4.43-28.7,9.18-57.51,18.01-86.24,27.11-6.51,2.06-12.07,1.59-16.35-4.25-4.48-6.12-3.2-13.19,3.46-16.77,3.75-2.02,7.95-3.27,12.05-4.53,24.92-7.62,49.87-15.11,74.79-22.71,8.9-2.72,8.85-2.82,5.04-11.03-11.45-24.66-22.88-49.34-34.29-74.02-.85-1.85-1.76-3.71-2.28-5.67-2.01-7.58,3.56-14.83,11.39-14.98Z"/><path class="uuid-9ee5b6c1-7d31-4329-9f9b-609790519a6a" d="M1800.74,432.66c6.37-.1,9.92,3.73,12.36,8.99,12.49,26.92,25.16,53.77,37.28,80.86,2.69,6.02,5.47,6.93,11.36,4.73,24.62-9.19,49.39-17.98,74.11-26.9,2.34-.85,4.68-1.73,7.08-2.41,7.51-2.12,13.53.41,15.78,6.54,2.26,6.14-.26,12.89-6.99,15.77-9.36,4.01-19.04,7.27-28.64,10.71-17.06,6.11-34.09,12.35-51.29,18.05-6.23,2.07-6.84,4.71-4.16,10.32,10.23,21.48,20.1,43.13,29.99,64.77,1.5,3.27,2.64,6.75,3.52,10.24,1.34,5.37.05,10.1-5.19,12.7-5.52,2.74-10.66,1.52-14.79-3-3.25-3.55-5.04-8.05-7.13-12.31-10.47-21.37-20.64-42.88-29.72-64.88-2.04-4.94-4.18-6.47-9.64-4.4-23.08,8.78-46.34,17.09-69.53,25.58-1.06.39-2.12.8-3.21,1.13-8.41,2.53-15.2-.09-17.61-6.75-2.45-6.77.93-13.07,9.43-16.19,23.18-8.52,46.37-17.02,69.75-24.99,6.31-2.15,6.7-4.4,4.01-10.01-12.22-25.55-23.99-51.32-35.97-76.98-2.29-4.9-3.59-9.83-1.13-15.01,2.05-4.31,5.63-6.35,10.33-6.54Z"/></g><g id="uuid-5e54f670-5508-4ab6-acc2-4f8f7f87fd2a"><path class="uuid-50092800-6dfd-4a2d-ad8e-846502376166" d="M293.67,1600.66c-123.71-80.93-123.73-132.52-156.22-192.96-12.42,127.75,135.88,191.23,156.22,192.96Z"/><path class="uuid-50092800-6dfd-4a2d-ad8e-846502376166" d="M2041.45,1577c122.07-100.38,122.09-164.38,154.16-239.35,12.25,158.46-134.08,237.21-154.16,239.35Z"/></g></svg>