<?xml version="1.0" encoding="UTF-8" standalone="no"?>
<!DOCTYPE svg PUBLIC "-//W3C//DTD SVG 1.1//EN" "http://www.w3.org/Graphics/SVG/1.1/DTD/svg11.dtd">
<svg width="100%" height="100%" viewBox="0 0 851 851" version="1.1" xmlns="http://www.w3.org/2000/svg" xmlns:xlink="http://www.w3.org/1999/xlink" xml:space="preserve" xmlns:serif="http://www.serif.com/" style="fill-rule:evenodd;clip-rule:evenodd;stroke-linejoin:round;stroke-miterlimit:2;">
    <g transform="matrix(0.563074,0,0,0.563074,466.503307,405.263622)">
        <path d="M415.131,717.813C409.764,717.476 401.728,715.759 395.155,713.545C384.709,710.025 374.639,704.109 363.275,694.817C358.877,691.221 348.965,681.196 338.271,669.527C336.671,667.782 333.694,664.563 331.656,662.377C327.968,658.417 325.396,655.613 320.139,649.817C318.742,648.275 317.336,646.742 315.919,645.218C315.115,644.362 314.337,643.528 314.189,643.366C314.041,643.204 312.079,641.106 309.827,638.704C307.575,636.304 305.128,633.684 304.389,632.884L301.079,629.307C299.407,627.501 297.737,625.693 296.069,623.883C294.482,622.16 292.89,620.441 291.292,618.728C290.339,617.71 287.129,614.198 284.159,610.923C281.189,607.648 277.438,603.541 275.824,601.795C273.544,599.306 271.292,596.793 269.067,594.255C266.885,591.764 264.685,589.289 262.467,586.829C260.56,584.723 258.664,582.607 256.778,580.482C255.208,578.708 253.62,576.949 252.016,575.205C250.997,574.11 248.378,571.197 246.195,568.733C244.012,566.269 241.322,563.293 240.216,562.121C236.419,558.097 231.264,552.29 221.096,540.585C219.371,538.598 217.413,536.377 216.746,535.649C216.079,534.921 212.67,531.074 209.169,527.099C199.554,516.185 193.465,509.289 192.659,508.401C191.671,507.313 186.794,501.734 184.538,499.111C178.109,491.638 169.568,482.028 166.748,479.094C165.143,477.426 165.3,477.466 161.793,477.828C160.483,477.963 156.911,478.203 153.855,478.36C150.799,478.517 146.811,478.761 144.992,478.903C143.172,479.044 139.422,479.28 136.657,479.426C121.914,480.209 116.743,480.504 113.507,480.746C111.542,480.894 105.47,481.254 100.013,481.546C94.555,481.837 88.781,482.193 87.18,482.336C85.58,482.479 81.234,482.776 77.523,482.998C73.813,483.218 68.335,483.57 65.353,483.779C62.369,483.989 57.963,484.287 55.563,484.442C53.161,484.598 49.768,484.842 48.022,484.986C46.276,485.13 42.597,485.368 39.848,485.515C33.299,485.865 23.204,486.505 19.05,486.835C17.231,486.978 12.052,487.276 7.54,487.497C-1.258,487.927 -12.902,488.612 -30.295,489.726C-32.623,489.875 -37.565,490.183 -41.275,490.411C-44.985,490.638 -49.51,490.938 -51.329,491.076C-53.148,491.214 -56.779,491.449 -59.399,491.599C-71.716,492.302 -78.353,492.703 -83.344,493.048C-86.327,493.254 -90.196,493.494 -91.943,493.581C-93.69,493.668 -96.725,493.852 -98.69,493.99C-100.655,494.128 -104.345,494.36 -106.892,494.508C-116.244,495.048 -120.378,495.308 -125.942,495.704C-129.07,495.927 -137.405,496.467 -144.462,496.904C-151.519,497.341 -159.974,497.87 -163.248,498.079C-181.163,499.225 -185.636,499.499 -189.309,499.672C-192.444,499.821 -200.761,500.344 -208.227,500.863C-210.337,501.01 -218.195,501.487 -225.69,501.923C-233.184,502.359 -241.637,502.888 -244.475,503.098C-247.313,503.308 -252.849,503.668 -256.778,503.896C-260.707,504.124 -266.601,504.485 -269.875,504.696C-273.149,504.906 -279.102,505.266 -283.105,505.493C-287.106,505.721 -292.107,506.022 -294.217,506.163C-296.327,506.303 -301.863,506.652 -306.52,506.937C-311.176,507.223 -317.844,507.64 -321.336,507.863C-324.828,508.086 -329.651,508.388 -332.052,508.533C-334.453,508.678 -338.978,508.973 -342.106,509.187C-345.234,509.401 -350.831,509.762 -354.542,509.987C-358.252,510.212 -363.848,510.569 -366.977,510.779C-370.106,510.989 -375.166,511.289 -378.222,511.445C-383.542,511.717 -393.586,512.315 -406.929,513.153C-410.349,513.368 -415.171,513.668 -417.645,513.821C-425.471,514.304 -434.139,514.88 -439.473,515.271C-442.311,515.48 -446.121,515.725 -447.94,515.815C-449.759,515.905 -454.997,516.208 -459.581,516.487C-464.165,516.767 -471.131,517.173 -475.059,517.39C-478.989,517.607 -483.87,517.908 -485.907,518.058C-489.579,518.328 -493.507,518.578 -502.444,519.105C-504.99,519.255 -509.872,519.56 -513.292,519.782C-527.1,520.677 -540.775,521.53 -547.158,521.893C-550.869,522.105 -555.513,522.397 -557.477,522.543C-559.441,522.689 -565.633,523.048 -571.235,523.34C-576.838,523.632 -583.029,523.992 -584.994,524.141C-586.959,524.29 -590.53,524.527 -592.931,524.667C-616.976,526.076 -626.066,526.657 -632.221,527.177C-638.796,527.732 -644.786,528.072 -655.544,528.499C-669.909,529.07 -678.494,528.58 -688.578,526.614L-693.208,525.711C-697.342,524.905 -708.018,521.312 -713.574,518.856C-716.098,517.74 -722.916,514.369 -724.76,513.324L-726.67,512.242C-727.361,511.844 -728.045,511.432 -728.72,511.007C-729.406,510.574 -730.092,510.143 -730.78,509.714C-734.638,507.309 -737.394,505.384 -742.286,501.68C-746.58,498.429 -756.338,489.131 -760.813,484.027C-765.342,478.863 -770.52,471.801 -773.502,466.725C-777.052,460.681 -778.172,458.713 -778.999,457.068C-780.198,454.683 -784.219,445.637 -784.996,443.574C-785.278,442.821 -785.569,442.071 -785.868,441.325C-787.008,438.565 -790.269,428.531 -791.114,425.185C-794.022,413.673 -795.259,404.778 -796.45,386.821C-796.957,379.186 -796.956,-288.423 -796.45,-294.481C-795.457,-306.349 -794.615,-312.295 -792.551,-321.998C-790.841,-330.042 -787.162,-341.213 -783.751,-348.721C-779.687,-357.669 -775.276,-365.431 -769.992,-372.931C-765.698,-379.025 -764.392,-380.673 -757.001,-389.333C-752.754,-394.308 -737.657,-410.383 -729.333,-418.794C-715.706,-432.564 -707.987,-438.77 -695.325,-446.142C-689.811,-449.352 -681.421,-453.03 -675.217,-454.956C-664.873,-458.166 -657.897,-459.41 -646.135,-460.138C-639.875,-460.525 -632.112,-460.087 -619.919,-458.658C-618.099,-458.444 -614.945,-458.083 -612.907,-457.855C-610.869,-457.627 -607.774,-457.265 -606.028,-457.05C-604.282,-456.835 -599.698,-456.299 -595.842,-455.858C-586.102,-454.745 -583.101,-454.384 -578.379,-453.755C-576.124,-453.455 -573.207,-453.096 -571.897,-452.959C-570.587,-452.821 -569.277,-452.653 -568.987,-452.585C-568.187,-452.397 -556.09,-450.886 -549.804,-450.188C-547.985,-449.987 -545.009,-449.641 -543.19,-449.42C-534.736,-448.394 -533.07,-448.189 -530.225,-447.825C-528.551,-447.611 -525.218,-447.193 -522.817,-446.896C-514.74,-445.898 -512.11,-445.563 -510.249,-445.293C-508.466,-445.034 -501.062,-444.17 -493.316,-443.316C-491.278,-443.091 -488.718,-442.792 -487.627,-442.651C-486.536,-442.511 -483.5,-442.149 -480.88,-441.848C-478.26,-441.547 -473.736,-440.998 -470.826,-440.627C-467.916,-440.256 -464.106,-439.788 -462.361,-439.587C-460.615,-439.387 -458.889,-439.16 -458.524,-439.084C-457.909,-438.956 -456.491,-438.789 -447.278,-437.754C-445.386,-437.542 -441.814,-437.124 -439.341,-436.824C-436.867,-436.524 -431.926,-435.93 -428.361,-435.503C-424.795,-435.075 -419.675,-434.429 -416.983,-434.067C-412.239,-433.427 -401.746,-432.147 -391.98,-431.013C-389.36,-430.709 -385.848,-430.29 -384.175,-430.083C-382.502,-429.876 -379.585,-429.518 -377.693,-429.29C-375.801,-429.062 -373.003,-428.699 -371.475,-428.483C-368.549,-428.071 -354.736,-426.38 -352.028,-426.103C-351.155,-426.013 -349.131,-425.778 -347.53,-425.58C-345.93,-425.382 -342.953,-425.028 -340.916,-424.793C-338.878,-424.557 -335.842,-424.193 -334.169,-423.984C-332.496,-423.775 -329.042,-423.359 -326.496,-423.06C-323.95,-422.761 -319.186,-422.172 -315.912,-421.751C-312.299,-421.289 -308.683,-420.849 -305.065,-420.433C-302.372,-420.129 -298.681,-419.706 -296.862,-419.493C-295.043,-419.279 -291.948,-418.92 -289.983,-418.694C-288.018,-418.468 -285.102,-418.114 -283.501,-417.905C-281.901,-417.697 -278.031,-417.223 -274.902,-416.852C-271.773,-416.481 -268.44,-416.062 -267.494,-415.922C-266.548,-415.78 -263.69,-415.421 -261.144,-415.122C-251.677,-414.012 -249.826,-413.792 -246.724,-413.409C-244.978,-413.193 -239.501,-412.541 -234.554,-411.959C-229.876,-411.41 -225.202,-410.837 -220.53,-410.24C-210.965,-408.985 -210.635,-408.945 -190.897,-406.658C-188.423,-406.372 -185.03,-405.961 -183.357,-405.745C-181.684,-405.529 -179.182,-405.224 -177.8,-405.067C-176.418,-404.911 -174.036,-404.615 -172.508,-404.41C-166.216,-403.566 -163.368,-403.207 -157.956,-402.575L-145.389,-401.107C-141.605,-400.665 -137.14,-400.127 -135.467,-399.911C-133.793,-399.694 -130.043,-399.224 -127.132,-398.865C-124.222,-398.505 -119.102,-397.862 -115.755,-397.435C-112.408,-397.006 -107.943,-396.463 -105.833,-396.226L-98.425,-395.396C-91.144,-394.58 -83.237,-393.626 -74.348,-392.49C-71.365,-392.109 -67.53,-391.639 -65.827,-391.445C-64.124,-391.251 -61.861,-390.973 -60.8,-390.825C-59.738,-390.678 -57.203,-390.365 -55.166,-390.131C-53.128,-389.896 -50.092,-389.532 -48.419,-389.321C-44.664,-388.848 -30.513,-387.138 -28.707,-386.939C-27.98,-386.859 -26.194,-386.626 -24.739,-386.423C-18.291,-385.523 -11.685,-384.683 -5.953,-384.033C-3.916,-383.803 -0.343,-383.389 1.984,-383.113C4.313,-382.837 8.361,-382.366 10.98,-382.065C13.6,-381.765 16.695,-381.4 17.86,-381.255C19.024,-381.111 20.988,-380.882 22.225,-380.747C23.462,-380.612 26.915,-380.195 29.898,-379.82C32.881,-379.446 37.286,-378.9 39.688,-378.605C42.088,-378.312 45.422,-377.897 47.096,-377.684C50.014,-377.312 51.259,-377.167 58.341,-376.374C65.681,-375.551 75.581,-374.368 77.091,-374.134C77.983,-373.994 81.214,-373.58 84.27,-373.212C87.326,-372.844 90.66,-372.426 91.678,-372.283C92.822,-372.125 93.969,-371.987 95.118,-371.869C99.599,-371.434 117.728,-369.259 127.132,-368.029C131.011,-367.532 134.892,-367.049 138.774,-366.579C142.994,-366.067 147.816,-365.473 149.49,-365.261C151.163,-365.048 154.2,-364.684 156.236,-364.452C158.274,-364.22 161.31,-363.856 162.983,-363.642C164.656,-363.428 167.038,-363.14 168.275,-363.002C170.666,-362.736 175.485,-362.102 178.329,-361.681C179.275,-361.541 181.18,-361.313 182.563,-361.176C183.945,-361.039 186.564,-360.741 188.383,-360.514C192.294,-360.026 194.422,-359.783 202.539,-358.896C205.886,-358.53 210.529,-357.99 212.857,-357.696C215.186,-357.401 218.638,-356.988 220.53,-356.778C222.422,-356.568 224.212,-356.34 224.508,-356.272C224.804,-356.204 226.054,-356.032 227.286,-355.889C228.518,-355.747 231.848,-355.335 234.686,-354.973C237.524,-354.611 241.988,-354.064 244.607,-353.758C247.227,-353.451 250.62,-353.035 252.147,-352.833C253.676,-352.63 255.64,-352.391 256.514,-352.302C257.387,-352.212 259.351,-351.973 260.879,-351.77C262.407,-351.567 265.324,-351.207 267.361,-350.97C269.398,-350.733 272.256,-350.37 273.711,-350.164C275.166,-349.958 278.381,-349.546 280.855,-349.249C283.329,-348.953 286.722,-348.542 288.395,-348.339C290.069,-348.134 292.212,-347.893 293.158,-347.804C296.423,-347.495 306.725,-346.284 311.282,-345.674C315.234,-345.144 326.464,-343.729 330.2,-343.29C344.776,-341.577 345.378,-341.505 356.658,-340.11C359.642,-339.74 364.047,-339.208 366.448,-338.925C368.849,-338.643 372.123,-338.227 373.724,-338.002C375.325,-337.777 378.004,-337.427 379.677,-337.224C381.35,-337.021 383.672,-336.732 384.837,-336.583C386.001,-336.433 388.62,-336.13 390.657,-335.907C398.37,-335.065 409.067,-333.811 417.777,-332.727L427.302,-331.544C429.703,-331.246 433.096,-330.821 434.842,-330.599C436.588,-330.377 440.102,-329.954 442.648,-329.659C448.924,-328.929 469.13,-326.371 473.868,-325.705C478.825,-325.009 486.964,-324.015 493.316,-323.328C508.97,-321.637 514.966,-320.789 524.404,-318.934C533.652,-317.117 540.028,-315.409 546.1,-313.124L551.099,-311.241C554.829,-309.832 560.03,-307.501 565.811,-304.645C575.758,-299.732 581.378,-296.401 588.865,-290.981C597.263,-284.901 603.416,-279.751 609.959,-273.325C620.864,-262.615 628.599,-252.139 635.267,-239.051C638.658,-232.393 639.873,-229.564 642.256,-222.779C645.906,-212.384 647.545,-203.928 647.973,-193.279C648.283,-185.561 648.286,306.338 647.976,311.547C647.846,313.73 647.546,316.825 647.309,318.427C646.927,321.009 646.594,322.723 645.177,329.407C643.57,336.983 636.904,351.412 630.692,360.759C628.302,364.357 623.202,370.904 620.58,373.742C619.743,374.667 618.909,375.593 618.077,376.522C614.777,380.199 606.569,388.337 599.944,394.502C596.743,397.481 592.754,401.237 591.08,402.848C586.578,407.184 584.863,408.741 579.438,413.418C578.638,414.108 577.268,415.342 576.395,416.161C569.657,422.482 561.465,428.733 553.125,433.917C552.773,434.135 548.935,436.384 544.597,438.915C540.257,441.445 536.385,443.737 535.99,444.008C535.595,444.279 535.214,444.5 535.142,444.5C535.07,444.5 534.385,444.869 533.62,445.32C532.855,445.771 531.213,446.68 529.97,447.339C528.728,447.999 527.327,448.824 526.857,449.174L526.002,449.811L525.922,534.931C525.859,603.096 525.775,620.42 525.502,621.903C525.314,622.922 524.873,625.367 524.522,627.336C523.091,635.389 519.306,644.242 514.29,651.272C511.215,655.581 509.428,657.802 506.607,660.826C503.114,664.57 485.173,682.543 479.556,687.926C470.366,696.734 469.466,697.53 464.45,701.303C459.865,704.753 457.331,706.426 453.546,708.504C440.242,715.81 428.516,718.651 415.131,717.813M461.566,637.879C465.639,636.904 469.101,634.159 471.181,630.256C472.797,627.222 473.446,624.79 474.187,618.993C474.591,615.835 474.8,424.073 474.425,400.315C474.282,391.22 474.247,383.704 474.347,383.613C474.448,383.521 477.447,383.309 481.013,383.14C484.578,382.97 488.983,382.723 490.803,382.589C492.621,382.454 496.669,382.219 499.798,382.064C511.737,381.474 520.336,380.561 526.256,379.252C530.576,378.298 536.522,376.676 539.632,375.605C544.714,373.855 553.652,369.677 557.212,367.386C558.158,366.778 559.409,365.996 559.991,365.649C563.961,363.283 570.744,357.839 575.204,353.439C584.686,344.084 591.179,333.599 594.631,322.064C595.217,320.108 595.52,318.484 596.36,312.79C596.517,311.728 596.775,308.097 596.935,304.72C597.355,295.854 597.335,-182.5 596.915,-191.535C596.472,-201.081 595.662,-205.209 592.475,-214.171C591.435,-217.092 587.781,-224.036 585.439,-227.541C575.649,-242.191 560.799,-255.238 545.174,-262.917C537.672,-266.604 533.171,-268.25 524.272,-270.562C514.64,-273.065 505.386,-274.394 483.923,-276.356C480.791,-276.648 477.66,-276.956 474.53,-277.278C471.62,-277.578 467.512,-278.001 465.402,-278.217C460.602,-278.707 455.35,-279.305 446.749,-280.337C445.003,-280.547 442.383,-280.839 440.929,-280.985C439.473,-281.131 436.079,-281.495 433.388,-281.793C430.876,-282.073 428.362,-282.338 425.847,-282.589C424.392,-282.729 422.367,-282.959 421.349,-283.102C419.896,-283.296 418.441,-283.469 416.983,-283.621C414.6,-283.877 412.219,-284.147 409.84,-284.431C402.74,-285.275 398.68,-285.732 394.626,-286.143L386.821,-286.933C384.565,-287.162 381.886,-287.466 380.868,-287.61C379.849,-287.753 376.694,-288.11 373.856,-288.402C371.076,-288.688 368.298,-288.994 365.522,-289.32C363.776,-289.532 358.418,-290.13 353.616,-290.65C348.814,-291.169 342.206,-291.898 338.931,-292.27C335.657,-292.64 331.371,-293.102 329.406,-293.294C324.402,-293.782 318.406,-294.425 313.134,-295.039C310.661,-295.326 307.089,-295.727 305.197,-295.929C302.462,-296.224 299.728,-296.528 296.995,-296.841C294.375,-297.142 290.565,-297.561 288.528,-297.773C286.491,-297.984 282.621,-298.397 279.929,-298.689C270.004,-299.768 267.28,-300.059 263.657,-300.431C261.62,-300.641 257.751,-301.057 255.058,-301.357C252.366,-301.657 248.913,-302.019 247.386,-302.163C245.859,-302.307 244.31,-302.485 243.946,-302.56C243.222,-302.708 238.418,-303.276 232.833,-303.873C230.869,-304.083 228.904,-304.323 228.468,-304.406C228.032,-304.489 226.067,-304.726 224.102,-304.932C215.957,-305.787 202.342,-307.262 199.628,-307.582C198.028,-307.772 195.051,-308.116 193.014,-308.349C190.977,-308.582 189.012,-308.829 188.648,-308.898C188.284,-308.967 186.201,-309.202 184.018,-309.418C177.354,-310.081 171.733,-310.673 159.808,-311.968C156.987,-312.275 154.165,-312.575 151.342,-312.87C145.674,-313.456 140.462,-314.027 135.467,-314.608C132.92,-314.905 129.289,-315.314 127.397,-315.518C124.706,-315.812 122.016,-316.117 119.327,-316.434C116.781,-316.734 113.447,-317.094 111.919,-317.233C108.057,-317.583 101.977,-318.217 95.118,-318.984C91.916,-319.342 87.69,-319.806 85.725,-320.016C83.761,-320.226 80.129,-320.641 77.655,-320.94C75.181,-321.239 71.55,-321.656 69.585,-321.866C67.62,-322.076 64.406,-322.432 62.442,-322.657C60.018,-322.932 57.592,-323.197 55.166,-323.452C53.128,-323.665 51.104,-323.907 50.668,-323.989C50.231,-324.072 48.148,-324.305 46.038,-324.506C41.416,-324.947 31.284,-326.06 26.723,-326.626C23.014,-327.088 20.361,-327.386 14.949,-327.951C12.912,-328.164 9.221,-328.571 6.747,-328.854C4.273,-329.137 -0.727,-329.679 -4.366,-330.055C-7.675,-330.396 -10.982,-330.753 -14.287,-331.127C-16.271,-331.358 -18.255,-331.582 -20.241,-331.798C-33.075,-333.18 -39.211,-333.854 -42.995,-334.298C-45.419,-334.579 -47.844,-334.845 -50.271,-335.097C-52.213,-335.295 -54.153,-335.51 -56.091,-335.741C-58.162,-335.985 -60.234,-336.211 -62.309,-336.418C-64.515,-336.64 -66.72,-336.87 -68.924,-337.108C-70.234,-337.253 -72.972,-337.54 -75.009,-337.746C-77.789,-338.034 -80.568,-338.341 -83.344,-338.668C-86.076,-338.99 -88.811,-339.3 -91.546,-339.596C-93.51,-339.806 -96.606,-340.159 -98.425,-340.382C-102.109,-340.835 -109.977,-341.665 -116.02,-342.238C-118.845,-342.515 -121.667,-342.824 -124.486,-343.162C-132.404,-344.124 -146.234,-345.694 -148.828,-345.926C-150.022,-346.037 -151.212,-346.173 -152.4,-346.336C-153.346,-346.472 -156.025,-346.775 -158.353,-347.01C-160.912,-347.269 -163.47,-347.541 -166.026,-347.824C-167.918,-348.037 -171.073,-348.382 -173.037,-348.592C-175.001,-348.802 -178.277,-349.158 -180.313,-349.385C-182.351,-349.612 -185.565,-349.968 -187.457,-350.175C-189.349,-350.382 -192.98,-350.797 -195.527,-351.095C-198.347,-351.424 -201.17,-351.737 -203.994,-352.031C-206.104,-352.246 -208.128,-352.481 -208.492,-352.554C-208.855,-352.626 -210.998,-352.861 -213.254,-353.075C-219.358,-353.655 -222.544,-353.98 -226.219,-354.398C-228.644,-354.672 -231.069,-354.94 -233.495,-355.203C-235.833,-355.457 -238.171,-355.724 -240.506,-356.004C-247.409,-356.847 -253.276,-357.508 -261.54,-358.374C-265.643,-358.802 -269.744,-359.241 -273.844,-359.693C-275.808,-359.915 -279.142,-360.28 -281.252,-360.503C-283.362,-360.726 -286.577,-361.083 -288.396,-361.293C-290.379,-361.521 -292.363,-361.738 -294.349,-361.943C-295.804,-362.091 -299.019,-362.452 -301.493,-362.745C-304.225,-363.067 -306.959,-363.372 -309.695,-363.66C-311.732,-363.87 -315.899,-364.337 -318.955,-364.695C-325.405,-365.452 -328.685,-365.817 -333.639,-366.325C-336.419,-366.617 -339.197,-366.924 -341.974,-367.247C-344.75,-367.569 -347.528,-367.876 -350.308,-368.167C-352.273,-368.367 -355.606,-368.722 -357.717,-368.955C-359.828,-369.188 -363.22,-369.552 -365.257,-369.765C-367.294,-369.978 -369.795,-370.264 -370.813,-370.4C-372.707,-370.639 -374.604,-370.86 -376.502,-371.063L-384.175,-371.893C-386.285,-372.123 -389.738,-372.483 -391.848,-372.695C-402.353,-373.749 -410.291,-374.605 -411.162,-374.78C-411.526,-374.852 -413.491,-375.096 -415.528,-375.322L-422.672,-376.113C-424.564,-376.323 -428.195,-376.736 -430.742,-377.033C-436.073,-377.652 -441.409,-378.225 -446.749,-378.753C-452.766,-379.35 -458.069,-379.923 -458.919,-380.068C-459.356,-380.142 -461.38,-380.378 -463.418,-380.592C-467.255,-380.994 -468.478,-381.129 -478.234,-382.232C-481.436,-382.593 -485.662,-383.052 -487.627,-383.252C-490.451,-383.545 -493.273,-383.853 -496.094,-384.176C-501.436,-384.791 -505.985,-385.303 -511.307,-385.89C-513.955,-386.188 -516.601,-386.499 -519.245,-386.824C-521.933,-387.154 -524.623,-387.466 -527.315,-387.759C-529.279,-387.969 -532.435,-388.309 -534.325,-388.517C-536.218,-388.725 -539.015,-389.029 -540.544,-389.193L-549.407,-390.147C-552.754,-390.509 -557.279,-390.979 -559.461,-391.192C-561.644,-391.406 -564.323,-391.699 -565.414,-391.844C-567.188,-392.08 -573.549,-392.796 -583.142,-393.84C-584.961,-394.038 -589.128,-394.5 -592.402,-394.867C-599.092,-395.617 -603.85,-396.117 -611.584,-396.884C-614.494,-397.172 -619.138,-397.64 -621.903,-397.924C-633.38,-399.101 -636.437,-399.204 -641.747,-398.589C-647.778,-397.89 -653.555,-396.53 -659.077,-394.509C-662.273,-393.338 -669.82,-389.541 -673.154,-387.427C-681.124,-382.372 -689.065,-374.908 -695.051,-366.845C-699.694,-360.591 -701.645,-357.253 -704.643,-350.441C-705.147,-349.293 -705.654,-348.147 -706.163,-347.001C-708.107,-342.648 -710.324,-334.232 -711.461,-326.893C-711.799,-324.651 -712.082,-322.402 -712.311,-320.146C-712.554,-317.606 -712.647,-240.924 -712.714,10.451C-712.791,301.603 -712.756,338.474 -712.397,344.38C-712.174,348.031 -711.878,351.663 -711.738,352.45C-711.598,353.237 -711.23,355.488 -710.919,357.452C-709.416,366.968 -705.641,377.886 -700.812,386.689C-691.552,403.571 -677.808,416.964 -662.084,424.429C-652.41,429.022 -644.909,431.047 -634.735,431.814C-629.65,432.197 -619.033,431.899 -596.768,430.748C-591.383,430.47 -584.538,430.172 -581.554,430.088C-578.571,430.002 -574.046,429.813 -571.5,429.668C-566.565,429.385 -559.338,429.057 -548.613,428.628C-536.777,428.154 -519.185,427.34 -505.486,426.633C-498.423,426.268 -493.961,426.08 -477.176,425.443C-473.101,425.288 -466.196,424.993 -461.83,424.787C-457.464,424.582 -450.32,424.29 -445.955,424.139C-441.589,423.989 -434.445,423.687 -430.08,423.468C-421.649,423.045 -411.022,422.529 -397.404,421.882C-392.202,421.638 -386.998,421.416 -381.794,421.217C-377.792,421.069 -372.434,420.831 -369.887,420.687C-360.73,420.173 -348.981,419.623 -341.709,419.37C-337.635,419.229 -331.801,418.991 -328.745,418.842L-317.765,418.307C-314.781,418.161 -309.125,417.924 -305.197,417.779C-301.267,417.634 -295.91,417.398 -293.291,417.254C-290.671,417.111 -285.016,416.864 -280.723,416.707C-276.43,416.55 -268.572,416.191 -263.26,415.91C-257.949,415.628 -250.746,415.28 -247.253,415.135C-243.504,414.978 -239.755,414.798 -236.008,414.595C-233.316,414.443 -228.315,414.211 -224.896,414.078C-209.724,413.491 -203.796,413.244 -199.099,413.001C-196.334,412.859 -189.429,412.568 -183.753,412.356C-177.49,412.119 -171.229,411.857 -164.968,411.569C-160.311,411.349 -152.274,410.991 -147.108,410.775C-141.942,410.559 -135.572,410.261 -132.953,410.114C-130.333,409.967 -126.405,409.78 -124.222,409.699C-122.039,409.618 -118.288,409.436 -115.887,409.294C-113.487,409.153 -108.367,408.924 -104.51,408.784C-100.654,408.644 -95.118,408.404 -92.207,408.251C-89.297,408.097 -80.843,407.734 -73.422,407.445C-66,407.156 -56.297,406.745 -51.858,406.534C-47.42,406.322 -40.752,406.028 -37.042,405.88C-30.162,405.606 -23.237,405.288 -14.022,404.822C-11.185,404.678 -6.304,404.495 -3.175,404.414C-0.046,404.333 5.788,404.093 9.79,403.88C13.792,403.668 20.995,403.315 25.797,403.097C30.599,402.879 35.957,402.635 37.703,402.557C39.449,402.477 42.903,402.295 45.376,402.153C47.85,402.01 54.756,401.716 60.722,401.499C70.497,401.144 83.006,400.589 90.488,400.179C92.016,400.096 96.361,399.916 100.145,399.78C103.928,399.645 109.345,399.412 112.183,399.264C115.021,399.116 121.033,398.814 125.545,398.591C130.056,398.368 137.14,398.011 141.288,397.796C145.436,397.581 152.162,397.284 156.237,397.136C160.312,396.988 165.907,396.75 168.672,396.607C177.297,396.162 185.236,395.811 195.659,395.414C201.189,395.204 207.679,394.919 210.079,394.781C212.479,394.643 216.707,394.451 219.472,394.355L224.499,394.179L228.364,398.371C231.097,401.36 233.786,404.39 236.43,407.458C240.257,411.918 242.65,414.658 254.103,427.699C256.147,430.027 258.063,432.219 258.358,432.571C259.137,433.498 261.1,435.774 261.915,436.695C262.302,437.131 265.9,441.239 269.911,445.823C282.044,459.687 285.651,463.773 289.296,467.783C292.74,471.571 300.246,479.944 302.816,482.863C304.776,485.09 308.034,488.711 313.386,494.612C315.737,497.201 318.074,499.802 320.396,502.417C322.411,504.688 324.44,506.946 326.484,509.191C328.441,511.34 330.385,513.5 332.316,515.673C333.404,516.91 336.618,520.478 339.458,523.601C342.297,526.725 345.096,529.831 345.678,530.504C346.852,531.86 350.348,535.684 356.769,542.636C359.109,545.169 361.847,548.146 362.852,549.25C366.734,553.518 370.366,557.441 372.549,559.726C373.801,561.036 378.04,565.62 381.97,569.913C393.358,582.351 395.79,585 397.78,587.133C399.734,589.24 401.682,591.353 403.622,593.473C410.586,601.074 424.922,616.212 429.419,620.711C432.958,624.251 437.441,628.051 441.193,630.687C450.483,637.215 456.083,639.192 461.566,637.879M-409.31,271.034C-417.762,270.251 -423.34,269.151 -429.947,266.964C-435.242,265.213 -439.897,262.829 -443.838,259.849C-448.543,256.293 -453.777,249.747 -455.757,244.941C-456.132,244.03 -456.6,242.927 -456.797,242.491C-457.129,241.749 -458.132,238.798 -459.163,235.521C-459.407,234.745 -459.951,232.781 -460.371,231.156C-461.259,227.731 -462.203,224.321 -463.201,220.927C-463.739,219.077 -464.269,217.225 -464.791,215.371C-465.303,213.551 -466.077,210.813 -466.511,209.285C-466.961,207.701 -467.397,206.114 -467.819,204.523C-468.06,203.595 -468.309,202.669 -468.565,201.745C-468.69,201.308 -469.03,200.058 -469.32,198.967C-469.874,196.934 -470.445,194.905 -471.032,192.881C-471.769,190.327 -472.493,187.769 -473.204,185.208C-473.741,183.265 -474.289,181.325 -474.85,179.388C-475.124,178.465 -475.388,177.538 -475.64,176.609C-475.844,175.856 -476.059,175.106 -476.286,174.36C-477.884,169.035 -478.746,165.999 -479.854,161.793C-480.283,160.159 -480.72,158.527 -481.166,156.898L-481.942,154.12C-482.145,153.392 -482.562,151.963 -482.868,150.945C-483.322,149.406 -483.76,147.863 -484.181,146.315C-484.614,144.725 -485.055,143.138 -485.503,141.552C-486.14,139.308 -486.757,137.059 -487.354,134.805C-487.468,134.369 -488.004,132.523 -488.545,130.705C-489.427,127.739 -490.161,125.13 -491.895,118.798C-492.469,116.704 -492.553,116.395 -493.407,113.242C-493.895,111.474 -494.398,109.71 -494.914,107.95C-495.368,106.41 -495.809,104.867 -496.238,103.32C-496.433,102.592 -496.826,101.163 -497.11,100.145C-498.028,96.859 -499.297,92.243 -499.655,90.885C-499.985,89.635 -500.671,87.249 -501.558,84.27C-502.463,81.195 -503.327,78.108 -504.151,75.01C-504.71,72.92 -506.299,67.299 -507.069,64.69C-507.455,63.38 -508.069,61.178 -508.434,59.796C-509.039,57.498 -509.495,55.79 -510.536,51.924C-511.478,48.428 -511.698,47.641 -512.216,45.905C-512.632,44.498 -513.035,43.087 -513.426,41.672C-513.786,40.362 -514.326,38.398 -514.628,37.306C-514.93,36.214 -515.402,34.488 -515.678,33.47C-516.544,30.283 -518.068,24.791 -518.434,23.548C-519.361,20.383 -520.252,17.208 -521.107,14.023C-521.581,12.256 -522.066,10.492 -522.563,8.731C-523.846,4.279 -525.275,-0.787 -525.587,-1.984C-525.776,-2.712 -526.243,-4.354 -526.625,-5.634C-527.271,-7.801 -527.848,-9.916 -529.705,-16.934C-530.244,-18.943 -530.806,-20.946 -531.391,-22.942C-531.915,-24.72 -532.513,-26.862 -532.721,-27.705C-532.928,-28.547 -533.531,-30.785 -534.061,-32.676C-534.483,-34.171 -534.891,-35.671 -535.284,-37.174C-535.427,-37.756 -535.853,-39.244 -536.23,-40.481C-536.598,-41.688 -536.946,-42.901 -537.274,-44.119C-537.472,-44.883 -537.804,-46.133 -538.014,-46.897C-538.224,-47.661 -538.634,-49.179 -538.924,-50.271C-539.477,-52.354 -540.774,-57.144 -541.576,-60.061C-541.907,-61.255 -542.251,-62.445 -542.606,-63.632C-543.576,-66.859 -544.206,-69.101 -545.018,-72.232C-545.407,-73.733 -545.802,-75.232 -546.204,-76.729C-547.261,-80.613 -549.585,-88.972 -550.065,-90.619C-550.605,-92.472 -553.523,-103.206 -554.165,-105.701C-554.565,-107.256 -555.766,-111.441 -556.139,-112.581C-556.379,-113.368 -556.597,-114.162 -556.793,-114.961C-557.305,-117.027 -558.603,-121.838 -559.328,-124.354C-559.642,-125.446 -560.058,-126.934 -560.254,-127.661C-560.449,-128.389 -560.784,-129.58 -561,-130.307C-561.48,-131.922 -567.502,-153.894 -568.724,-158.485C-571.013,-167.083 -572.138,-171.217 -572.828,-173.567C-573.148,-174.658 -573.576,-176.177 -573.778,-176.94C-573.98,-177.703 -574.333,-179.014 -574.562,-179.85C-574.791,-180.686 -575.133,-182.027 -575.323,-182.827C-575.513,-183.627 -576.118,-185.949 -576.666,-187.987C-577.177,-189.877 -577.667,-191.774 -578.136,-193.675C-578.396,-194.766 -578.799,-196.374 -579.032,-197.247C-579.53,-199.109 -579.604,-202.527 -579.185,-204.359C-578.17,-208.805 -573.721,-215.112 -568.589,-219.379C-563.267,-223.805 -556.276,-227.601 -549.275,-229.867C-545.207,-231.183 -534.9,-232.832 -530.734,-232.833C-526.654,-232.833 -520.609,-231.896 -516.467,-230.62C-515.057,-230.185 -512.474,-228.823 -511.175,-227.828C-510.665,-227.438 -509.92,-226.913 -509.519,-226.661C-508.67,-226.129 -504.825,-222.277 -504.825,-221.959C-504.825,-221.841 -504.517,-221.293 -504.141,-220.74C-501.791,-217.29 -499.921,-211.725 -496.515,-198.04C-495.863,-195.421 -495.09,-192.326 -494.797,-191.161C-494.504,-189.996 -493.781,-187.021 -493.189,-184.547C-492.597,-182.073 -492.049,-179.811 -491.971,-179.52C-491.893,-179.229 -491.251,-176.728 -490.546,-173.964C-489.894,-171.404 -489.232,-168.846 -488.561,-166.291C-487.651,-162.864 -482.906,-144.241 -482.459,-142.346C-482.271,-141.546 -481.824,-139.819 -481.466,-138.509C-481.108,-137.199 -480.753,-135.83 -480.678,-135.467C-480.602,-135.103 -480.035,-132.9 -479.418,-130.572C-478.913,-128.68 -478.423,-126.783 -477.948,-124.883C-477.758,-124.083 -477.172,-121.821 -476.647,-119.856C-475.224,-114.529 -473.899,-109.358 -473.461,-107.421C-473.247,-106.475 -472.882,-105.046 -472.651,-104.246C-472.421,-103.446 -472.081,-102.136 -471.895,-101.336C-471.709,-100.536 -471.245,-98.749 -470.865,-97.366C-469.635,-92.905 -467.898,-86.129 -467.371,-83.741C-467.179,-82.867 -466.589,-80.546 -466.061,-78.581C-464.776,-73.804 -464.252,-71.807 -463.459,-68.659C-463.092,-67.204 -462.532,-65.002 -462.215,-63.765C-461.898,-62.528 -461.425,-60.623 -461.162,-59.531C-460.693,-57.574 -460.462,-56.691 -459.326,-52.52C-458.434,-49.243 -457.206,-44.523 -456.678,-42.333C-455.847,-38.893 -454.824,-34.828 -454.547,-33.867C-454.109,-32.349 -452.694,-26.965 -452.321,-25.4C-452.131,-24.6 -451.706,-22.992 -451.379,-21.828C-451.052,-20.664 -450.684,-19.235 -450.562,-18.653C-450.44,-18.071 -449.853,-15.69 -449.257,-13.361C-448.662,-11.033 -448.017,-8.473 -447.825,-7.673C-447.633,-6.873 -447.21,-5.265 -446.885,-4.101C-446.56,-2.937 -446.14,-1.389 -445.952,-0.661L-444.237,5.953C-443.482,8.863 -442.711,11.9 -442.525,12.7C-442.338,13.5 -441.92,15.048 -441.597,16.14C-441.273,17.231 -440.852,18.72 -440.66,19.447C-440.469,20.174 -440.056,21.722 -439.743,22.887C-438.729,26.657 -437.332,32.12 -437.103,33.205C-436.981,33.787 -436.445,35.93 -435.912,37.968C-433.562,46.948 -433.058,48.902 -432.73,50.271C-432.175,52.595 -430.278,59.801 -428.239,67.336C-427.209,71.142 -426.003,75.816 -425.577,77.656C-425.15,79.496 -423.714,85.049 -422.531,89.429C-421.74,92.359 -421.04,95.038 -418.831,103.584C-417.628,108.243 -417.635,108.218 -416.791,111.125C-416.433,112.362 -415.985,114.029 -415.796,114.829C-415.606,115.629 -415.007,117.951 -414.465,119.989C-413.922,122.026 -413.321,124.407 -413.127,125.28C-412.374,128.682 -411.51,132.185 -410.985,133.969C-410.588,135.375 -410.209,136.786 -409.847,138.202C-408.927,141.778 -408.16,144.629 -407.597,146.579C-407.365,147.379 -407.01,148.629 -406.807,149.357C-406.605,150.085 -406.298,151.179 -406.127,151.789C-405.956,152.399 -405.585,153.106 -405.305,153.359C-404.839,153.781 -404.76,153.784 -404.375,153.399C-403.856,152.88 -403.083,150.574 -401.511,144.859C-401.184,143.671 -400.689,141.954 -399.643,138.377C-399.451,137.722 -398.864,135.579 -398.339,133.615C-397.903,131.981 -397.46,130.35 -397.009,128.72C-396.804,127.992 -396.212,125.79 -395.693,123.825C-394.984,121.133 -394.267,118.443 -393.542,115.755C-393.348,115.028 -393.011,113.777 -392.793,112.977C-392.575,112.177 -391.853,109.319 -391.187,106.627C-390.521,103.935 -389.813,101.137 -389.614,100.409C-389.415,99.681 -388.874,97.658 -388.412,95.911C-387.95,94.165 -387.285,91.665 -386.934,90.355C-385.786,86.066 -384.676,81.925 -384.134,79.905C-383.036,75.82 -382.816,74.97 -382.451,73.422C-382.245,72.549 -381.827,71.001 -381.522,69.982C-381.062,68.401 -380.625,66.814 -380.212,65.22C-379.798,63.62 -379.262,61.595 -379.023,60.722C-377.886,56.573 -377.478,55.064 -377.16,53.842C-376.01,49.421 -372.396,35.834 -370.86,30.162C-370.486,28.78 -369.983,26.935 -369.742,26.062C-369.502,25.188 -369.138,23.849 -368.935,23.085C-368.555,21.662 -368.245,20.505 -367.245,16.801C-366.607,14.436 -365.323,9.564 -364.595,6.747C-364.333,5.728 -363.755,3.495 -363.313,1.785C-362.871,0.075 -362.451,-1.419 -362.38,-1.535C-362.309,-1.651 -361.895,-3.108 -361.46,-4.775C-360.7,-7.687 -359.92,-10.593 -359.12,-13.494C-358.902,-14.294 -358.393,-16.199 -357.989,-17.727C-357.038,-21.324 -355.36,-27.547 -354.886,-29.237C-354.385,-31.021 -353.784,-33.305 -352.205,-39.423C-351.473,-42.261 -350.557,-45.713 -350.171,-47.096C-349.784,-48.478 -349.297,-50.234 -349.089,-50.996C-348.881,-51.76 -348.537,-53.01 -348.324,-53.775C-347.819,-55.598 -345.327,-64.847 -344.884,-66.543C-344.694,-67.27 -344.159,-69.294 -343.694,-71.041C-343.229,-72.787 -342.694,-74.811 -342.504,-75.539C-342.314,-76.266 -341.962,-77.576 -341.721,-78.449C-341.479,-79.322 -341.059,-80.869 -340.787,-81.889C-340.515,-82.907 -339.202,-87.729 -337.869,-92.604L-335.048,-102.923C-334.828,-103.723 -334.295,-105.747 -333.861,-107.421C-332.594,-112.31 -330.719,-119.338 -330.014,-121.841C-329.397,-124.042 -328.795,-126.246 -328.208,-128.455C-328.018,-129.183 -327.364,-131.565 -326.756,-133.747C-326.263,-135.508 -325.781,-137.272 -325.31,-139.039C-324.61,-141.752 -323.541,-145.692 -323.193,-146.844C-322.697,-148.489 -320.707,-155.665 -320.148,-157.824C-320.035,-158.261 -319.461,-160.344 -318.873,-162.454C-318.284,-164.564 -317.187,-168.672 -316.434,-171.582C-314.478,-179.148 -313.938,-181.165 -312.746,-185.341C-312.289,-186.941 -311.495,-189.739 -310.98,-191.558C-308.605,-199.958 -306.96,-203.383 -303.742,-206.635C-301.695,-208.703 -298.636,-210.713 -296.002,-211.72C-291.828,-213.317 -283.655,-213.452 -276.49,-212.044C-271.99,-211.16 -265.46,-209.21 -262.334,-207.818C-261.898,-207.623 -260.767,-207.157 -259.821,-206.78C-256.229,-205.352 -245.919,-198.97 -244.211,-197.116C-244.138,-197.037 -243.304,-196.34 -242.358,-195.566C-238.514,-192.423 -234.766,-187.703 -232.569,-183.24C-230.745,-179.532 -229.835,-176.393 -230.072,-174.625C-230.387,-172.269 -231.025,-169.432 -231.767,-167.089C-232.225,-165.637 -232.666,-164.181 -233.091,-162.719C-234.421,-158.073 -236.467,-151.346 -237.477,-148.299C-237.67,-147.717 -238.087,-146.348 -238.402,-145.256C-238.719,-144.165 -239.135,-142.736 -239.328,-142.081C-239.521,-141.426 -239.933,-139.998 -240.244,-138.906C-240.493,-138.02 -240.757,-137.138 -241.034,-136.26C-241.456,-135.02 -243.579,-127.96 -245.014,-123.031C-245.581,-121.089 -246.156,-119.149 -246.739,-117.211C-247.244,-115.537 -247.906,-113.334 -248.21,-112.316C-248.515,-111.297 -248.92,-109.987 -249.11,-109.406C-249.301,-108.823 -249.717,-107.454 -250.034,-106.363C-250.289,-105.478 -250.555,-104.596 -250.832,-103.717C-250.952,-103.353 -251.312,-102.103 -251.632,-100.939C-251.952,-99.774 -252.433,-98.108 -252.702,-97.234C-253.156,-95.766 -254.824,-90.282 -255.762,-87.18C-255.981,-86.453 -256.324,-85.262 -256.524,-84.534C-256.724,-83.807 -257.143,-82.378 -257.454,-81.359C-257.776,-80.305 -258.084,-79.247 -258.376,-78.184C-258.684,-77.038 -259.801,-73.29 -261.019,-69.321C-262.563,-64.288 -263.259,-61.951 -263.659,-60.457C-263.98,-59.256 -264.425,-57.756 -265.522,-54.173C-265.733,-53.483 -266.075,-52.351 -266.282,-51.66C-266.489,-50.969 -266.915,-49.57 -267.229,-48.551C-267.872,-46.466 -268.104,-45.689 -269.479,-41.011C-270.814,-36.464 -271.071,-35.599 -271.718,-33.47C-272.832,-29.823 -273.903,-26.163 -274.93,-22.49C-275.744,-19.597 -276.203,-18.012 -276.614,-16.669C-276.814,-16.014 -277.236,-14.585 -277.551,-13.494C-277.844,-12.475 -278.153,-11.46 -278.479,-10.451C-278.763,-9.575 -279.029,-8.692 -279.277,-7.805C-279.521,-6.932 -279.882,-5.682 -280.08,-5.027C-280.496,-3.657 -281.408,-0.547 -282.566,3.44C-282.911,4.632 -283.26,5.822 -283.613,7.011C-283.746,7.448 -284.17,8.877 -284.557,10.186C-284.944,11.496 -285.362,12.806 -285.487,13.096C-285.611,13.388 -285.959,14.489 -286.26,15.544C-287.018,18.196 -287.818,21.027 -288.299,22.754C-288.521,23.554 -288.869,24.745 -289.071,25.4C-289.273,26.055 -289.689,27.484 -289.994,28.575C-290.299,29.666 -290.654,30.797 -290.782,31.089C-290.91,31.379 -291.442,33.166 -291.966,35.057C-292.404,36.647 -292.851,38.235 -293.307,39.82C-293.522,40.547 -294.057,42.393 -294.497,43.92C-294.877,45.247 -295.268,46.57 -295.671,47.89C-296.301,49.915 -296.918,51.943 -297.523,53.975C-298.863,58.502 -299.866,61.97 -300.163,63.103C-300.796,65.53 -302.178,70.24 -302.413,70.776C-302.54,71.067 -303.083,72.853 -303.619,74.745C-306.119,83.575 -306.809,85.938 -308.513,91.545C-309.111,93.51 -309.756,95.713 -309.947,96.441C-310.222,97.485 -311.896,103.341 -312.821,106.495C-313.097,107.438 -314.076,110.695 -314.47,111.985C-315.402,115.035 -316.638,119.318 -317.886,123.825C-318.43,125.79 -319.109,128.23 -319.394,129.249C-320.164,131.998 -321.447,136.246 -321.871,137.451C-322.108,138.148 -322.316,138.854 -322.493,139.568C-322.631,140.15 -323.181,142.114 -323.716,143.933C-324.25,145.753 -324.806,147.657 -324.953,148.167C-325.567,150.241 -326.188,152.314 -326.816,154.384C-327.694,157.294 -328.567,160.271 -328.756,160.999C-329.001,161.929 -329.262,162.855 -329.539,163.777C-329.781,164.577 -330.14,165.827 -330.337,166.555C-330.534,167.283 -331.191,169.545 -331.797,171.582C-333.28,176.562 -333.652,177.868 -334.809,182.166C-335.331,184.103 -336.503,188.146 -338.259,194.072C-338.649,195.382 -339.123,197.048 -339.315,197.776C-339.507,198.504 -339.96,200.111 -340.322,201.348C-340.883,203.285 -341.432,205.225 -341.969,207.168C-342.824,210.263 -343.709,213.351 -344.623,216.429L-345.92,220.861C-346.442,222.644 -347.272,225.501 -347.765,227.211C-348.259,228.921 -348.909,231.047 -349.211,231.936C-349.513,232.826 -349.875,234.016 -350.015,234.582C-350.239,235.483 -351.559,239.292 -352.757,242.491C-354.353,246.753 -357.423,251.739 -360.358,254.835C-361.931,256.493 -365.654,259.685 -367.242,260.735C-373.989,265.196 -383.718,268.574 -395.155,270.425C-398.24,270.925 -406.602,271.285 -409.31,271.034M-146.315,263.094C-153.474,262.436 -161.933,260.31 -165.972,258.154C-171.048,255.443 -172.122,254.684 -175.063,251.742C-177.697,249.105 -178.143,248.519 -179.202,246.3C-179.855,244.933 -180.524,243.081 -180.69,242.187C-181.113,239.903 -181.126,-180.304 -180.704,-183.917C-180.233,-187.946 -178.174,-191.737 -174.562,-195.23C-172.002,-197.706 -170.114,-199.092 -167.878,-200.139C-163.997,-201.956 -163.688,-202.01 -157.295,-201.998C-153.981,-201.992 -149.422,-201.794 -146.711,-201.539C-144.092,-201.293 -140.461,-200.965 -138.641,-200.809C-136.823,-200.654 -133.489,-200.357 -131.233,-200.149C-128.978,-199.942 -125.108,-199.594 -122.634,-199.377C-120.16,-199.159 -117.66,-198.919 -117.078,-198.842C-116.496,-198.765 -112.031,-198.405 -107.156,-198.042C-102.281,-197.679 -95.971,-197.2 -93.133,-196.98C-90.295,-196.76 -86.367,-196.46 -84.402,-196.312C-82.438,-196.165 -78.449,-195.865 -75.539,-195.645C-72.629,-195.425 -67.866,-195.072 -64.955,-194.86C-53.325,-194.01 -31.95,-192.105 -24.871,-191.286C-22.324,-190.991 -19.109,-190.634 -17.727,-190.492C-15.39,-190.252 -13.608,-190.012 -6.747,-189.02C-2.372,-188.386 5.417,-186.874 10.319,-185.706C20.365,-183.313 25.72,-181.82 30.692,-180.026C35.497,-178.293 40.982,-176.219 42.202,-175.674C47.537,-173.29 54.266,-169.979 56.621,-168.578C61.905,-165.435 66.854,-162.255 68.924,-160.672C69.07,-160.561 69.904,-159.942 70.776,-159.298C79.138,-153.123 88.671,-143.246 94.799,-134.408C98.046,-129.724 100.452,-125.78 102.464,-121.841C105.714,-115.477 109.331,-106.293 110.851,-100.541C112.793,-93.191 113.503,-90.305 113.876,-88.239L114.689,-83.741C116.857,-71.73 117.472,-54.209 116.291,-38.1C115.689,-29.89 114.293,-20.506 112.983,-15.875C112.839,-15.365 112.23,-13.163 111.629,-10.98C110.334,-6.276 108.408,-0.387 107.562,1.455C107.362,1.892 106.941,2.904 106.627,3.705C103.936,10.563 98.332,19.989 92.962,26.688C88.21,32.615 80.115,40.514 75.119,44.096C69.661,48.01 68.475,48.814 65.759,50.445C61.059,53.265 55.337,56.117 48.419,59.085C42.454,61.645 38.026,63.439 36.603,63.875C35.373,64.251 35.316,64.72 36.306,66.348C36.813,67.183 37.918,69.116 38.76,70.644C39.615,72.195 40.484,73.738 41.366,75.274C41.957,76.293 42.696,77.602 43.01,78.184C43.596,79.275 46.526,84.507 50.738,91.984C52.062,94.334 53.267,96.478 53.415,96.746C53.563,97.015 54.329,98.366 55.118,99.748C55.906,101.13 56.597,102.381 56.652,102.528C56.708,102.674 58.599,106.105 60.854,110.152C63.11,114.2 65.248,118.069 65.606,118.75C65.964,119.431 67.324,121.894 68.628,124.222C71.901,130.067 73.37,132.723 75.799,137.186C77.669,140.623 83.956,151.971 85.085,153.949C85.387,154.479 86.889,157.176 88.422,159.941C89.955,162.706 91.582,165.598 92.039,166.368C92.496,167.138 92.869,167.832 92.869,167.91C92.869,167.987 93.349,168.874 93.938,169.88C94.974,171.655 98.152,177.309 103.414,186.738C104.817,189.253 106.084,191.516 106.23,191.768L107.716,194.339C108.388,195.502 109.506,197.525 110.202,198.834C110.898,200.143 111.688,201.532 111.957,201.918C112.227,202.304 112.448,202.699 112.448,202.795C112.448,202.891 113.061,204.005 113.81,205.268C114.559,206.532 116.321,209.828 117.726,212.593C121.009,219.055 121.369,220.469 120.777,224.583C120.402,227.193 120.227,227.693 118.503,231.1C117.475,233.13 116.266,235.332 115.816,235.995C111.363,242.546 104.22,249.548 97.278,254.165C94.856,255.777 88.216,259.192 85.769,260.085C83.287,260.991 79.859,261.975 76.861,262.643C75.21,263.011 73.583,263.113 69.453,263.107C63.634,263.099 62.61,262.915 58.473,261.137C51.253,258.037 44.187,249.942 36.652,236.141C35.891,234.75 35.126,233.36 34.357,231.973C33.651,230.699 33.073,229.603 33.073,229.535C33.073,229.468 32.403,228.188 31.585,226.691C30.248,224.209 28.935,221.714 27.647,219.207C26.489,216.952 25.32,214.703 24.14,212.46C22.873,210.042 21.62,207.616 20.38,205.184C18.893,202.274 17.582,199.774 17.467,199.628C17.352,199.482 16.011,196.923 14.487,193.94C13.179,191.374 11.856,188.817 10.518,186.267C9.45,184.244 8.392,182.215 7.346,180.181C4.454,174.563 -0.174,165.708 -1.988,162.321C-2.858,160.698 -4.857,156.856 -8.733,149.357C-10.784,145.378 -12.854,141.41 -14.944,137.451C-16.236,134.987 -17.517,132.518 -18.788,130.043C-20.286,127.133 -22.13,123.56 -22.888,122.105C-24.787,118.455 -27.568,113.086 -34.398,99.88C-35.603,97.552 -36.884,95.111 -37.245,94.456C-37.915,93.226 -38.576,91.991 -39.23,90.752C-40.293,88.759 -41.373,86.775 -42.468,84.799C-43.445,83.04 -44.412,81.276 -45.37,79.507C-46.003,78.334 -46.655,77.171 -47.325,76.019C-48.237,74.466 -48.348,74.374 -49.477,74.233C-51.528,73.975 -64.374,73.576 -79.64,73.295C-87.716,73.147 -95.345,72.958 -96.593,72.877C-98.29,72.765 -98.935,72.815 -99.15,73.075C-99.356,73.323 -99.434,96.794 -99.426,155.707C-99.412,246.257 -99.283,239.081 -101.001,243.293C-102.073,245.92 -103.4,247.803 -106.383,250.927C-109.495,254.187 -112.769,256.487 -117.475,258.722C-121.565,260.663 -124.043,261.421 -129.778,262.483C-132.036,262.901 -134.083,263.043 -138.906,263.113C-142.326,263.163 -145.66,263.155 -146.315,263.094M-12.7,10.19C-6.67,9.468 -2.977,8.637 1.72,6.945C4.998,5.764 10.102,3.239 12.593,1.565C15.199,-0.185 19.716,-4.099 21.293,-5.974C22.017,-6.835 22.673,-7.599 22.752,-7.672C24.508,-9.31 28.487,-15.669 30.042,-19.322C34.115,-28.892 35.452,-36.949 35.454,-51.92C35.454,-64.89 34.681,-70.932 31.872,-79.906C31.485,-81.142 31.011,-82.509 30.818,-82.946L29.776,-85.289C28.709,-87.683 25.719,-93.074 24.396,-94.984C23.043,-96.942 20.019,-100.583 18.256,-102.377C16.659,-104.003 12.09,-107.67 9.432,-109.459C7.642,-110.665 1.027,-114.085 -2.646,-115.705C-5.364,-116.904 -9.73,-118.072 -15.743,-119.21C-17.331,-119.51 -18.918,-119.813 -20.505,-120.119C-21.876,-120.386 -28.512,-121.125 -35.851,-121.829C-40.308,-122.256 -45.496,-122.617 -53.181,-123.035C-56.049,-123.193 -58.915,-123.366 -61.781,-123.555C-64.998,-123.759 -68.217,-123.939 -71.437,-124.093C-74.525,-124.24 -77.612,-124.416 -80.697,-124.62C-86.795,-125.055 -95.559,-125.534 -97.499,-125.54L-99.351,-125.544L-99.417,-59.001C-99.454,-22.403 -99.392,7.682 -99.281,7.854C-99.063,8.189 -88.161,8.757 -72.231,9.264C-67.501,9.414 -58.334,9.72 -51.858,9.944C-28.519,10.753 -26.514,10.802 -21.298,10.694C-18.388,10.635 -14.519,10.408 -12.7,10.19ZM303.345,259.275C290.098,258.879 282.992,258.301 273.844,256.877C261.149,254.9 249.294,251.694 239.713,247.647C236.846,246.436 227.313,241.72 226.187,240.955C225.452,240.469 224.702,240.006 223.938,239.567C216.355,235.23 205.625,226.281 199.372,219.076C196.912,216.241 192.054,209.893 190.059,206.906C186.369,201.381 182.194,193.297 179.759,186.968C179.371,185.952 178.976,184.939 178.574,183.928C178.256,183.156 177.576,181.093 176.511,177.668C172.719,165.475 170.487,151.114 169.602,133.218C169.252,126.134 169.252,-41.069 169.602,-48.418C170.049,-57.81 171.067,-67.541 172.244,-73.685C175.919,-92.861 180.674,-105.185 189.448,-118.268C196.178,-128.305 206.808,-138.748 216.958,-145.295C223.712,-149.65 228.343,-152.043 236.008,-155.137C248.786,-160.296 264.944,-163.703 280.723,-164.567C290.665,-165.11 309.383,-164.79 318.426,-163.921C325.782,-163.215 330.421,-162.566 339.328,-160.997C340.638,-160.767 342.424,-160.457 343.297,-160.31C344.17,-160.163 345.599,-159.873 346.472,-159.666C347.345,-159.46 349.429,-158.993 351.102,-158.63C352.776,-158.266 355.038,-157.732 356.129,-157.443C357.22,-157.154 358.411,-156.842 358.775,-156.75C359.139,-156.658 359.972,-156.425 360.627,-156.232C361.282,-156.04 362.711,-155.623 363.802,-155.306C375.976,-151.775 386.026,-147.846 396.214,-142.636C399.561,-140.924 403.284,-138.906 404.486,-138.152C405.689,-137.397 407.951,-136.02 409.513,-135.092C413.897,-132.487 422.04,-126.516 426.641,-122.534C435.674,-114.714 443.613,-105.314 449.611,-95.335C451.734,-91.805 454.688,-85.738 456.353,-81.491C459.129,-74.409 460.796,-68.14 462.473,-58.471C463.623,-51.849 463.553,-40.416 462.33,-35.056C461.049,-29.437 459.245,-25.606 456.271,-22.187C453.726,-19.261 451.548,-17.539 448.336,-15.916C446.172,-14.821 445.072,-14.455 442.296,-13.903C436.666,-12.783 434.4,-12.618 426.927,-12.776C419.155,-12.94 413.027,-13.592 406.135,-14.986C399.508,-16.326 397.222,-17.124 393.171,-19.512C390.208,-21.259 388.618,-22.576 386.923,-24.688C383.101,-29.45 381.965,-32.406 381.383,-39.104C380.807,-45.722 380.263,-49.23 379.053,-54.106C377.503,-60.349 375.251,-65.587 372.001,-70.51C366.093,-79.461 357.655,-86.57 347.028,-91.548C337.13,-96.185 322.711,-98.945 308.372,-98.948C300.065,-98.948 294.059,-98.078 287.47,-95.92C278.53,-92.99 272.289,-89.204 266.217,-83.026C262.412,-79.153 260.02,-75.746 257.061,-69.981C253.682,-63.398 251.68,-53.853 251.066,-41.406C250.604,-32.044 250.575,130.261 251.034,135.6C252.14,148.453 254.755,157.593 259.78,166.16C265.127,175.277 273.046,182.475 283.369,187.602C288.865,190.332 297.209,192.642 305.461,193.719C311.404,194.494 323.751,194.564 328.745,193.85C339.03,192.38 345.555,190.632 351.533,187.742C357.601,184.809 361.353,182.19 365.531,177.969C369.505,173.955 373.647,167.422 375.614,162.064C378.028,155.488 378.709,152.808 380.067,144.538C380.551,141.594 381.44,135.145 381.664,132.954C381.887,130.784 382.802,126.808 383.306,125.824C384.787,122.935 388.146,119.181 390.861,117.383C395.468,114.331 398.013,113.31 403.886,112.159C407.169,111.516 414.728,110.869 419.025,110.865C426.819,110.856 436.675,111.875 441.986,113.236C444.82,113.963 449.499,116.286 452.15,118.284C453.337,119.179 455.107,120.834 456.085,121.964C462.145,128.967 464.211,137.906 463.18,152.666C462.951,155.94 462.631,159.393 462.468,160.339C461.7,164.812 460.833,169.129 460.344,170.928C460.047,172.016 459.647,173.528 459.454,174.289C457.99,180.056 454.629,188.313 451.132,194.734C443.41,208.913 430.282,222.371 414.205,232.588C404.678,238.643 396.892,242.597 386.424,246.696C381.72,248.538 378.282,249.677 372.798,251.212C370.397,251.884 367.837,252.607 367.109,252.818C362.819,254.06 355.522,255.596 348.324,256.772C339.587,258.2 332.842,258.817 320.807,259.29C313.665,259.571 313.241,259.57 303.345,259.275M-824.772,-719.35L-826.029,-719.431L-826.029,-720.731C-826.029,-722.296 -825.749,-722.501 -823.544,-722.545C-821.968,-722.577 -821.297,-722.209 -821.275,-721.301C-821.265,-720.889 -821.905,-720.196 -822.295,-720.196C-822.446,-720.196 -822.782,-719.987 -823.042,-719.733C-823.389,-719.393 -823.852,-719.291 -824.772,-719.35" style="fill-rule:nonzero;"/>
    </g>
</svg>
